<svg xmlns="http://www.w3.org/2000/svg" xmlns:xlink="http://www.w3.org/1999/xlink" viewBox="-55.5 -56.5 111 113">
	<path stroke="#00ff40" stroke-width="3" fill="none"
		d="M 0.3684 -19.2127 L 0.1413 -21.9439L 0.7296 -24.9292L 2.1859 -27.9707L 4.5171 -30.8627L 7.6842 -33.4020L 11.6037 -35.3979L 16.1516 -36.6816L 21.1688 -37.1149L 26.4687 -36.5967L 31.8460 -35.0686L 37.0863 -32.5177L 41.9762 -28.9780L 46.3136 -24.5285L 49.9173 -19.2905L 52.6354 -13.4214L 54.3527 -7.1079L 54.9961 -0.5575L 54.5382 6.0116L 52.9985 12.3801L 50.4426 18.3381L 46.9788 23.6947L 42.7533 28.2870L 37.9430 31.9873L 32.7472 34.7089L 27.3779 36.4103L 22.0501 37.0963L 16.9714 36.8178L 12.3322 35.6691L 8.2967 33.7824L 4.9954 31.3221L 2.5190 28.4756L 0.9140 25.4449L 0.1814 22.4358L 0.2763 19.6484L 1.1107 17.2669L 2.5580 15.4506L 4.4594 14.3261L 6.6322 13.9809L 8.8783 14.4593L 10.9949 15.7600L 12.7840 17.8360L 14.0627 20.5970L 14.6723 23.9136L 14.4862 27.6235L 13.4166 31.5394L 11.4188 35.4580L 8.4940 39.1697L 4.6897 42.4693L 0.0974 45.1653L -5.1512 47.0897L -10.8900 48.1061L -16.9266 48.1166L -23.0510 47.0665L -29.0453 44.9470L -34.6941 41.7964L -39.7943 37.6981L -44.1651 32.7769L -47.6558 27.1933L -50.1535 21.1360L -51.5877 14.8136L -51.9341 8.4440L -51.2149 2.2451L -49.4982 -3.5759L -46.8944 -8.8318L -43.5506 -13.3642L -39.6436 -17.0508L -35.3712 -19.8107L -30.9427 -21.6082L -26.5690 -22.4539L -22.4520 -22.4039L -18.7754 -21.5567L -15.6956 -20.0481L -13.3342 -18.0443L -11.7726 -15.7335L -11.0478 -13.3164L -11.1511 -10.9963L -12.0284 -8.9688L -13.5833 -7.4125L -15.6817 -6.4793L -18.1585 -6.2875L -20.8262 -6.9154L -23.4836 -8.3975L -25.9262 -10.7224L -27.9563 -13.8331L -29.3927 -17.6299L -30.0796 -21.9743L -29.8952 -26.6963L -28.7568 -31.6019L -26.6262 -36.4823L -23.5112 -41.1241L -19.4659 -45.3197L -14.5883 -48.8764L -9.0163 -51.6266L -2.9210 -53.4353L 3.5008 -54.2067L 10.0359 -53.8889L 16.4645 -52.4766L 22.5706 -50.0112L 28.1516 -46.5789L 33.0281 -42.3069L 37.0523 -37.3574L 40.1141 -31.9197L 42.1468 -26.2014L 43.1296 -20.4188L 43.0885 -14.7866L 42.0945 -9.5075L 40.2603 -4.7634L 37.7342 -0.7063L 34.6928 2.5487L 31.3327 4.9281L 27.8603 6.4038L 24.4820 6.9936L 21.3938 6.7605L 18.7722 5.8089L 16.7651 4.2794L 15.4849 2.3417L 15.0030 0.1858L 15.3461 -1.9872L 16.4952 -3.9756L 18.3862 -5.5867L 20.9135 -6.6467L 23.9345 -7.0096L 27.2772 -6.5645L 30.7480 -5.2411L 34.1417 -3.0137L 37.2511 0.0972L 39.8774 4.0258L 41.8399 8.6636L 42.9848 13.8642L 43.1931 19.4506L 42.3865 25.2226L 40.5310 30.9670L 37.6397 36.4671L 33.7716 41.5131L 29.0297 45.9118L 23.5559 49.4960L 17.5249 52.1321L 11.1359 53.7265L 4.6033 54.2302L -1.8529 53.6405L -8.0178 52.0016L -13.6911 49.4020L -18.6967 45.9706L -22.8907 41.8701L -26.1680 37.2893L -28.4668 32.4343L -29.7714 27.5181L -30.1124 22.7510L -29.5652 18.3300L -28.2454 14.4300L -26.3035 11.1951L -23.9171 8.7322L -21.2817 7.1056L -18.6014 6.3345L -16.0786 6.3921L -13.9040 7.2073L -12.2469 8.6682L -11.2472 10.6279L -11.0081 12.9119L -11.5910 15.3269L -13.0126 17.6699L -15.2433 19.7393L -18.2092 21.3439L -21.7951 22.3134L -25.8498 22.5061L -30.1940 21.8170L -34.6279 20.1824L -38.9415 17.5839L -42.9246 14.0494L -46.3768 9.6525L -49.1169 4.5086L -50.9923 -1.2293L -51.8860 -7.3785L -51.7226 -13.7343L -50.4718 -20.0802L -48.1502 -26.1973L -44.8204 -31.8748L -40.5888 -36.9202L -35.5998 -41.1674L -30.0300 -44.4852L -24.0792 -46.7829L -17.9615 -48.0145L -11.8949 -48.1806L -6.0917 -47.3284L -0.7478 -45.5489L 3.9657 -42.9723L 7.9108 -39.7618L 10.9888 -36.1056L 13.1446 -32.2072L 14.3693 -28.2763L 14.6997 -24.5179L 14.2167 -21.1226L 13.0407 -18.2576L 11.3255 -16.0583L 9.2507 -14.6221L 7.0122 -14.0034L 4.8129 -14.2112L 2.8522 -15.2091L 1.3163 -16.9164L 0.3684 -19.2127L 0.1413 -21.9439L 0.7296 -24.9292L 2.1859 -27.9707L 4.5171 -30.8627L 7.6842 -33.4020L 11.6037 -35.3979L 16.1516 -36.6816L 21.1688 -37.1149L 26.4687 -36.5967" />
	<path stroke="#003700" stroke-width="1" fill="#003700"
		d="M 20.6994 1.3579L 22.1660 0.7071L 23.3821 0.2987L 24.2870 0.0861L 24.8352 0.0095L 24.9986 -0.0000L 24.7690 -0.0158L 24.1581 -0.1107L 23.1969 -0.3525L 21.9339 -0.7990L 20.4318 -1.4942L 18.7641 -2.4654L 17.0101 -3.7211L 15.2502 -5.2501L 13.5612 -7.0220L 12.0111 -8.9891L 10.6554 -11.0886L 9.5337 -13.2470L 8.6672 -15.3837L 8.0577 -17.4167L 7.6879 -19.2667L 7.5221 -20.8626L 7.5095 -22.1454L 7.5870 -23.0717L 7.6835 -23.6167L 7.7250 -23.7751L 7.6391 -23.5616L 7.3600 -23.0099L 6.8330 -22.1705L 6.0180 -21.1072L 4.8927 -19.8935L 3.4536 -18.6076L 1.7174 -17.3274L -0.2806 -16.1262L -2.4877 -15.0674L -4.8375 -14.2010L -7.2532 -13.5605L -9.6526 -13.1606L -11.9525 -12.9968L -14.0743 -13.0454L -15.9480 -13.2653L -17.5170 -13.6009L -18.7409 -13.9853L -19.5980 -14.3452L -20.0865 -14.6054L -20.2243 -14.6938L -20.0478 -14.5461L -19.6094 -14.1102L -18.9739 -13.3496L -18.2145 -12.2460L -17.4080 -10.8007L -16.6296 -9.0347L -15.9487 -6.9878L -15.4236 -4.7164L -15.0987 -2.2901L -15.0008 0.2124L -15.1382 2.7078L -15.4993 5.1133L -16.0542 7.3513L -16.7561 9.3542L -17.5443 11.0683L -18.3483 12.4568L -19.0921 13.5020L -19.6992 14.2059L -20.0976 14.5901L -20.2243 14.6938L -20.0293 14.5716L -19.4792 14.2893L -18.5595 13.9200L -17.2752 13.5388L -15.6514 13.2184L -13.7313 13.0238L -11.5742 13.0087L -9.2518 13.2113L -6.8438 13.6520L -4.4335 14.3323L -2.1027 15.2340L 0.0734 16.3208L 2.0304 17.5401L 3.7184 18.8266L 5.1051 20.1059L 6.1772 21.2996L 6.9414 22.3300L 7.4232 23.1249L 7.6655 23.6226L 7.7250 23.7751L 7.6690 23.5519L 7.5706 22.9415L 7.5035 21.9526L 7.5378 20.6134L 7.7349 18.9701L 8.1432 17.0838L 8.7954 15.0277L 9.7057 12.8815L 10.8690 10.7275L 12.2608 8.6455L 13.8386 6.7073L 15.5447 4.9736L 17.3091 3.4892L 19.0542 2.2813L 20.6994 1.3579L 22.1660 0.7071L 23.3821 0.2987L 24.2870 0.0861L 24.8352 0.0095L 24.9986 -0.0000L 24.7690 -0.0158L 24.1581 -0.1107L 23.1969 -0.3525L 21.9339 -0.7990" />
	</svg>