<?xml version="1.0" encoding="utf-8"?>
					<svg width="404" height="404"
					viewBox="-202 -202 404 404"><path stroke="#00ff406f" stroke-width="1" fill="none" d="M 23.2489 -12.6129L 19.6513 -9.7294L 16.0809 -6.7329L 12.5491 -3.6312L 9.0668 -0.4327L 5.6445 2.8536L 2.2924 6.2183L -0.9797 9.6514L -4.1624 13.1429L -7.2470 16.6820L -10.2249 20.2577L -13.0885 23.8589L -15.8304 27.4740L -18.4438 31.0914L -20.9228 34.6991L -23.2619 38.2852L -25.4561 41.8375L -27.5014 45.3441L -29.3941 48.7928L -31.1314 52.1715L -32.7111 55.4684L -34.1316 58.6715L -35.3921 61.7695L -36.4923 64.7508L -37.4329 67.6044L -38.2147 70.3195L -38.8397 72.8857L -39.3102 75.2932L -39.6293 77.5322L -39.8004 79.5937L -39.8278 81.4692L -39.7161 83.1508L -39.4707 84.6309L -39.0972 85.9028L -38.6018 86.9603L -37.9912 87.7980L -37.2723 88.4110L -36.4527 88.7953L -35.5400 88.9475L -34.5422 88.8651L -33.4677 88.5462L -32.3249 87.9896L -31.1225 87.1953L -29.8694 86.1635L -28.5744 84.8957L -27.2466 83.3938L -25.8949 81.6608L -24.5283 79.7002L -23.1556 77.5164L -21.7858 75.1146L -20.4274 72.5005L -19.0889 69.6809L -17.7785 66.6630L -16.5043 63.4547L -15.2739 60.0646L -14.0947 56.5020L -12.9738 52.7767L -11.9176 48.8990L -10.9325 44.8799L -10.0241 40.7306L -9.1978 36.4631L -8.4582 32.0896L -7.8097 27.6226L -7.2561 23.0751L -6.8003 18.4603L -6.4452 13.7915L -6.1926 9.0825L -6.0441 4.3469L -6.0004 -0.4014L -6.0618 -5.1485L -6.2280 -9.8806L -6.4981 -14.5838L -6.8704 -19.2444L -7.3428 -23.8488L -7.9128 -28.3836L -8.5769 -32.8357L -9.3314 -37.1922L -10.1720 -41.4405L -11.0937 -45.5686L -12.0913 -49.5646L -13.1588 -53.4173L -14.2901 -57.1158L -15.4785 -60.6499L -16.7168 -64.0099L -17.9977 -67.1866L -19.3133 -70.1716L -20.6558 -72.9570L -22.0167 -75.5356L -23.3877 -77.9009L -24.7599 -80.0473L -26.1246 -81.9698L -27.4729 -83.6640L -28.7959 -85.1265L -30.0844 -86.3545L -31.3296 -87.3462L -32.5225 -88.1004L -33.6543 -88.6167L -34.7165 -88.8956L -35.7004 -88.9382L -36.5980 -88.7466L -37.4011 -88.3234L -38.1021 -87.6721L -38.6938 -86.7969L -39.1690 -85.7027L -39.5213 -84.3952L -39.7445 -82.8805L -39.8330 -81.1657L -39.7817 -79.2581L -39.5858 -77.1660L -39.2415 -74.8978L -38.7450 -72.4629L -38.0937 -69.8708L -37.2851 -67.1315L -36.3176 -64.2556L -35.1903 -61.2538L -33.9027 -58.1372L -32.4552 -54.9174L -30.8488 -51.6059L -29.0851 -48.2145L -27.1663 -44.7552L -25.0956 -41.2400L -22.8766 -37.6811L -20.5136 -34.0905L -18.0114 -30.4803L -15.3758 -26.8625L -12.6129 -23.2489L -9.7294 -19.6513L -6.7329 -16.0809L -3.6312 -12.5491L -0.4327 -9.0668L 2.8536 -5.6445L 6.2183 -2.2924L 9.6514 0.9797L 13.1429 4.1624L 16.6820 7.2470L 20.2577 10.2249L 23.8589 13.0885L 27.4740 15.8304L 31.0914 18.4438L 34.6991 20.9228L 38.2852 23.2619L 41.8375 25.4561L 45.3441 27.5014L 48.7928 29.3941L 52.1715 31.1314L 55.4684 32.7111L 58.6715 34.1316L 61.7695 35.3921L 64.7508 36.4923L 67.6044 37.4329L 70.3195 38.2147L 72.8857 38.8397L 75.2932 39.3102L 77.5322 39.6293L 79.5937 39.8004L 81.4692 39.8278L 83.1508 39.7161L 84.6309 39.4707L 85.9028 39.0972L 86.9603 38.6018L 87.7980 37.9912L 88.4110 37.2723L 88.7953 36.4527L 88.9475 35.5400L 88.8651 34.5422L 88.5462 33.4677L 87.9896 32.3249L 87.1953 31.1225L 86.1635 29.8694L 84.8957 28.5744L 83.3938 27.2466L 81.6608 25.8949L 79.7002 24.5283L 77.5164 23.1556L 75.1146 21.7858L 72.5005 20.4274L 69.6809 19.0889L 66.6630 17.7785L 63.4547 16.5043L 60.0646 15.2739L 56.5020 14.0947L 52.7767 12.9738L 48.8990 11.9176L 44.8799 10.9325L 40.7306 10.0241L 36.4631 9.1978L 32.0896 8.4582L 27.6226 7.8097L 23.0751 7.2561L 18.4603 6.8003L 13.7915 6.4452L 9.0825 6.1926L 4.3469 6.0441L -0.4014 6.0004L -5.1485 6.0618L -9.8806 6.2280L -14.5838 6.4981L -19.2444 6.8704L -23.8488 7.3428L -28.3836 7.9128L -32.8357 8.5769L -37.1922 9.3314L -41.4405 10.1720L -45.5686 11.0937L -49.5646 12.0913L -53.4173 13.1588L -57.1158 14.2901L -60.6499 15.4785L -64.0099 16.7168L -67.1866 17.9977L -70.1716 19.3133L -72.9570 20.6558L -75.5356 22.0167L -77.9009 23.3877L -80.0473 24.7599L -81.9698 26.1246L -83.6640 27.4729L -85.1265 28.7959L -86.3545 30.0844L -87.3462 31.3296L -88.1004 32.5225L -88.6167 33.6543L -88.8956 34.7165L -88.9382 35.7004L -88.7466 36.5980L -88.3234 37.4011L -87.6721 38.1021L -86.7969 38.6938L -85.7027 39.1690L -84.3952 39.5213L -82.8805 39.7445L -81.1657 39.8330L -79.2581 39.7817L -77.1660 39.5858L -74.8978 39.2415L -72.4629 38.7450L -69.8708 38.0937L -67.1315 37.2851L -64.2556 36.3176L -61.2538 35.1903L -58.1372 33.9027L -54.9174 32.4552L -51.6059 30.8488L -48.2145 29.0851L -44.7552 27.1663L -41.2400 25.0956L -37.6811 22.8766L -34.0905 20.5136L -30.4803 18.0114L -26.8625 15.3758L -23.2489 12.6129L -19.6513 9.7294L -16.0809 6.7329L -12.5491 3.6312L -9.0668 0.4327L -5.6445 -2.8536L -2.2924 -6.2183L 0.9797 -9.6514L 4.1624 -13.1429L 7.2470 -16.6820L 10.2249 -20.2577L 13.0885 -23.8589L 15.8304 -27.4740L 18.4438 -31.0914L 20.9228 -34.6991L 23.2619 -38.2852L 25.4561 -41.8375L 27.5014 -45.3441L 29.3941 -48.7928L 31.1314 -52.1715L 32.7111 -55.4684L 34.1316 -58.6715L 35.3921 -61.7695L 36.4923 -64.7508L 37.4329 -67.6044L 38.2147 -70.3195L 38.8397 -72.8857L 39.3102 -75.2932L 39.6293 -77.5322L 39.8004 -79.5937L 39.8278 -81.4692L 39.7161 -83.1508L 39.4707 -84.6309L 39.0972 -85.9028L 38.6018 -86.9603L 37.9912 -87.7980L 37.2723 -88.4110L 36.4527 -88.7953L 35.5400 -88.9475L 34.5422 -88.8651L 33.4677 -88.5462L 32.3249 -87.9896L 31.1225 -87.1953L 29.8694 -86.1635L 28.5744 -84.8957L 27.2466 -83.3938L 25.8949 -81.6608L 24.5283 -79.7002L 23.1556 -77.5164L 21.7858 -75.1146L 20.4274 -72.5005L 19.0889 -69.6809L 17.7785 -66.6630L 16.5043 -63.4547L 15.2739 -60.0646L 14.0947 -56.5020L 12.9738 -52.7767L 11.9176 -48.8990L 10.9325 -44.8799L 10.0241 -40.7306L 9.1978 -36.4631L 8.4582 -32.0896L 7.8097 -27.6226L 7.2561 -23.0751L 6.8003 -18.4603L 6.4452 -13.7915L 6.1926 -9.0825L 6.0441 -4.3469L 6.0004 0.4014L 6.0618 5.1485L 6.2280 9.8806L 6.4981 14.5838L 6.8704 19.2444L 7.3428 23.8488L 7.9128 28.3836L 8.5769 32.8357L 9.3314 37.1922L 10.1720 41.4405L 11.0937 45.5686L 12.0913 49.5646L 13.1588 53.4173L 14.2901 57.1158L 15.4785 60.6499L 16.7168 64.0099L 17.9977 67.1866L 19.3133 70.1716L 20.6558 72.9570L 22.0167 75.5356L 23.3877 77.9009L 24.7599 80.0473L 26.1246 81.9698L 27.4729 83.6640L 28.7959 85.1265L 30.0844 86.3545L 31.3296 87.3462L 32.5225 88.1004L 33.6543 88.6167L 34.7165 88.8956L 35.7004 88.9382L 36.5980 88.7466L 37.4011 88.3234L 38.1021 87.6721L 38.6938 86.7969L 39.1690 85.7027L 39.5213 84.3952L 39.7445 82.8805L 39.8330 81.1657L 39.7817 79.2581L 39.5858 77.1660L 39.2415 74.8978L 38.7450 72.4629L 38.0937 69.8708L 37.2851 67.1315L 36.3176 64.2556L 35.1903 61.2538L 33.9027 58.1372L 32.4552 54.9174L 30.8488 51.6059L 29.0851 48.2145L 27.1663 44.7552L 25.0956 41.2400L 22.8766 37.6811L 20.5136 34.0905L 18.0114 30.4803L 15.3758 26.8625L 12.6129 23.2489L 9.7294 19.6513L 6.7329 16.0809L 3.6312 12.5491L 0.4327 9.0668L -2.8536 5.6445L -6.2183 2.2924L -9.6514 -0.9797L -13.1429 -4.1624L -16.6820 -7.2470L -20.2577 -10.2249L -23.8589 -13.0885L -27.4740 -15.8304L -31.0914 -18.4438L -34.6991 -20.9228L -38.2852 -23.2619L -41.8375 -25.4561L -45.3441 -27.5014L -48.7928 -29.3941L -52.1715 -31.1314L -55.4684 -32.7111L -58.6715 -34.1316L -61.7695 -35.3921L -64.7508 -36.4923L -67.6044 -37.4329L -70.3195 -38.2147L -72.8857 -38.8397L -75.2932 -39.3102L -77.5322 -39.6293L -79.5937 -39.8004L -81.4692 -39.8278L -83.1508 -39.7161L -84.6309 -39.4707L -85.9028 -39.0972L -86.9603 -38.6018L -87.7980 -37.9912L -88.4110 -37.2723L -88.7953 -36.4527L -88.9475 -35.5400L -88.8651 -34.5422L -88.5462 -33.4677L -87.9896 -32.3249L -87.1953 -31.1225L -86.1635 -29.8694L -84.8957 -28.5744L -83.3938 -27.2466L -81.6608 -25.8949L -79.7002 -24.5283L -77.5164 -23.1556L -75.1146 -21.7858L -72.5005 -20.4274L -69.6809 -19.0889L -66.6630 -17.7785L -63.4547 -16.5043L -60.0646 -15.2739L -56.5020 -14.0947L -52.7767 -12.9738L -48.8990 -11.9176L -44.8799 -10.9325L -40.7306 -10.0241L -36.4631 -9.1978L -32.0896 -8.4582L -27.6226 -7.8097L -23.0751 -7.2561L -18.4603 -6.8003L -13.7915 -6.4452L -9.0825 -6.1926L -4.3469 -6.0441L 0.4014 -6.0004L 5.1485 -6.0618L 9.8806 -6.2280L 14.5838 -6.4981L 19.2444 -6.8704L 23.8488 -7.3428L 28.3836 -7.9128L 32.8357 -8.5769L 37.1922 -9.3314L 41.4405 -10.1720L 45.5686 -11.0937L 49.5646 -12.0913L 53.4173 -13.1588L 57.1158 -14.2901L 60.6499 -15.4785L 64.0099 -16.7168L 67.1866 -17.9977L 70.1716 -19.3133L 72.9570 -20.6558L 75.5356 -22.0167L 77.9009 -23.3877L 80.0473 -24.7599L 81.9698 -26.1246L 83.6640 -27.4729L 85.1265 -28.7959L 86.3545 -30.0844L 87.3462 -31.3296L 88.1004 -32.5225L 88.6167 -33.6543L 88.8956 -34.7165L 88.9382 -35.7004L 88.7466 -36.5980L 88.3234 -37.4011L 87.6721 -38.1021L 86.7969 -38.6938L 85.7027 -39.1690L 84.3952 -39.5213L 82.8805 -39.7445L 81.1657 -39.8330L 79.2581 -39.7817L 77.1660 -39.5858L 74.8978 -39.2415L 72.4629 -38.7450L 69.8708 -38.0937L 67.1315 -37.2851L 64.2556 -36.3176L 61.2538 -35.1903L 58.1372 -33.9027L 54.9174 -32.4552L 51.6059 -30.8488L 48.2145 -29.0851L 44.7552 -27.1663L 41.2400 -25.0956L 37.6811 -22.8766L 34.0905 -20.5136L 30.4803 -18.0114L 26.8625 -15.3758L 23.2489 -12.6129L 19.6513 -9.7294L 16.0809 -6.7329L 12.5491 -3.6312L 9.0668 -0.4327L 5.6445 2.8536L 2.2924 6.2183L -0.9797 9.6514L -4.1624 13.1429L -7.2470 16.6820L -10.2249 20.2577L -13.0885 23.8589L -15.8304 27.4740L -18.4438 31.0914L -20.9228 34.6991L -23.2619 38.2852L -25.4561 41.8375L -27.5014 45.3441L -29.3941 48.7928L -31.1314 52.1715L -32.7111 55.4684L -34.1316 58.6715L -35.3921 61.7695L -36.4923 64.7508L -37.4329 67.6044L -38.2147 70.3195L -38.8397 72.8857L -39.3102 75.2932L -39.6293 77.5322L -39.8004 79.5937L -39.8278 81.4692L -39.7161 83.1508L -39.4707 84.6309L -39.0972 85.9028L -38.6018 86.9603L -37.9912 87.7980L -37.2723 88.4110L -36.4527 88.7953L -35.5400 88.9475L -34.5422 88.8651L -33.4677 88.5462L -32.3249 87.9896L -31.1225 87.1953L -29.8694 86.1635L -28.5744 84.8957L -27.2466 83.3938L -25.8949 81.6608L -24.5283 79.7002L -23.1556 77.5164L -21.7858 75.1146L -20.4274 72.5005L -19.0889 69.6809L -17.7785 66.6630L -16.5043 63.4547L -15.2739 60.0646L -14.0947 56.5020L -12.9738 52.7767L -11.9176 48.8990L -10.9325 44.8799L -10.0241 40.7306L -9.1978 36.4631L -8.4582 32.0896L -7.8097 27.6226L -7.2561 23.0751L -6.8003 18.4603L -6.4452 13.7915L -6.1926 9.0825L -6.0441 4.3469L -6.0004 -0.4014L -6.0618 -5.1485L -6.2280 -9.8806L -6.4981 -14.5838L -6.8704 -19.2444L -7.3428 -23.8488L -7.9128 -28.3836L -8.5769 -32.8357L -9.3314 -37.1922L -10.1720 -41.4405L -11.0937 -45.5686L -12.0913 -49.5646L -13.1588 -53.4173L -14.2901 -57.1158L -15.4785 -60.6499L -16.7168 -64.0099L -17.9977 -67.1866L -19.3133 -70.1716L -20.6558 -72.9570L -22.0167 -75.5356L -23.3877 -77.9009L -24.7599 -80.0473L -26.1246 -81.9698L -27.4729 -83.6640L -28.7959 -85.1265L -30.0844 -86.3545L -31.3296 -87.3462L -32.5225 -88.1004L -33.6543 -88.6167L -34.7165 -88.8956L -35.7004 -88.9382L -36.5980 -88.7466L -37.4011 -88.3234L -38.1021 -87.6721L -38.6938 -86.7969L -39.1690 -85.7027L -39.5213 -84.3952L -39.7445 -82.8805L -39.8330 -81.1657L -39.7817 -79.2581L -39.5858 -77.1660L -39.2415 -74.8978L -38.7450 -72.4629L -38.0937 -69.8708L -37.2851 -67.1315L -36.3176 -64.2556L -35.1903 -61.2538L -33.9027 -58.1372L -32.4552 -54.9174L -30.8488 -51.6059L -29.0851 -48.2145L -27.1663 -44.7552L -25.0956 -41.2400L -22.8766 -37.6811L -20.5136 -34.0905L -18.0114 -30.4803L -15.3758 -26.8625L -12.6129 -23.2489L -9.7294 -19.6513L -6.7329 -16.0809L -3.6312 -12.5491L -0.4327 -9.0668L 2.8536 -5.6445L 6.2183 -2.2924L 9.6514 0.9797L 13.1429 4.1624L 16.6820 7.2470L 20.2577 10.2249L 23.8589 13.0885L 27.4740 15.8304L 31.0914 18.4438L 34.6991 20.9228L 38.2852 23.2619L 41.8375 25.4561L 45.3441 27.5014L 48.7928 29.3941L 52.1715 31.1314L 55.4684 32.7111L 58.6715 34.1316L 61.7695 35.3921L 64.7508 36.4923L 67.6044 37.4329L 70.3195 38.2147L 72.8857 38.8397L 75.2932 39.3102L 77.5322 39.6293L 79.5937 39.8004L 81.4692 39.8278L 83.1508 39.7161L 84.6309 39.4707L 85.9028 39.0972L 86.9603 38.6018L 87.7980 37.9912L 88.4110 37.2723L 88.7953 36.4527L 88.9475 35.5400L 88.8651 34.5422L 88.5462 33.4677L 87.9896 32.3249L 87.1953 31.1225L 86.1635 29.8694L 84.8957 28.5744L 83.3938 27.2466L 81.6608 25.8949L 79.7002 24.5283L 77.5164 23.1556L 75.1146 21.7858L 72.5005 20.4274L 69.6809 19.0889L 66.6630 17.7785L 63.4547 16.5043L 60.0646 15.2739L 56.5020 14.0947L 52.7767 12.9738L 48.8990 11.9176L 44.8799 10.9325L 40.7306 10.0241L 36.4631 9.1978L 32.0896 8.4582L 27.6226 7.8097L 23.0751 7.2561L 18.4603 6.8003L 13.7915 6.4452L 9.0825 6.1926L 4.3469 6.0441L -0.4014 6.0004L -5.1485 6.0618L -9.8806 6.2280L -14.5838 6.4981L -19.2444 6.8704L -23.8488 7.3428L -28.3836 7.9128L -32.8357 8.5769L -37.1922 9.3314L -41.4405 10.1720L -45.5686 11.0937L -49.5646 12.0913L -53.4173 13.1588L -57.1158 14.2901L -60.6499 15.4785L -64.0099 16.7168L -67.1866 17.9977L -70.1716 19.3133L -72.9570 20.6558L -75.5356 22.0167L -77.9009 23.3877L -80.0473 24.7599L -81.9698 26.1246L -83.6640 27.4729L -85.1265 28.7959L -86.3545 30.0844L -87.3462 31.3296L -88.1004 32.5225L -88.6167 33.6543L -88.8956 34.7165L -88.9382 35.7004L -88.7466 36.5980L -88.3234 37.4011L -87.6721 38.1021L -86.7969 38.6938L -85.7027 39.1690L -84.3952 39.5213L -82.8805 39.7445L -81.1657 39.8330L -79.2581 39.7817L -77.1660 39.5858L -74.8978 39.2415L -72.4629 38.7450L -69.8708 38.0937L -67.1315 37.2851L -64.2556 36.3176L -61.2538 35.1903L -58.1372 33.9027L -54.9174 32.4552L -51.6059 30.8488L -48.2145 29.0851L -44.7552 27.1663L -41.2400 25.0956L -37.6811 22.8766L -34.0905 20.5136L -30.4803 18.0114L -26.8625 15.3758L -23.2489 12.6129L -19.6513 9.7294L -16.0809 6.7329L -12.5491 3.6312L -9.0668 0.4327L -5.6445 -2.8536L -2.2924 -6.2183L 0.9797 -9.6514L 4.1624 -13.1429L 7.2470 -16.6820L 10.2249 -20.2577L 13.0885 -23.8589L 15.8304 -27.4740L 18.4438 -31.0914L 20.9228 -34.6991L 23.2619 -38.2852L 25.4561 -41.8375L 27.5014 -45.3441L 29.3941 -48.7928L 31.1314 -52.1715L 32.7111 -55.4684L 34.1316 -58.6715L 35.3921 -61.7695L 36.4923 -64.7508L 37.4329 -67.6044L 38.2147 -70.3195L 38.8397 -72.8857L 39.3102 -75.2932L 39.6293 -77.5322L 39.8004 -79.5937L 39.8278 -81.4692L 39.7161 -83.1508L 39.4707 -84.6309L 39.0972 -85.9028L 38.6018 -86.9603L 37.9912 -87.7980L 37.2723 -88.4110L 36.4527 -88.7953L 35.5400 -88.9475L 34.5422 -88.8651L 33.4677 -88.5462L 32.3249 -87.9896L 31.1225 -87.1953L 29.8694 -86.1635L 28.5744 -84.8957L 27.2466 -83.3938L 25.8949 -81.6608L 24.5283 -79.7002L 23.1556 -77.5164L 21.7858 -75.1146L 20.4274 -72.5005L 19.0889 -69.6809L 17.7785 -66.6630L 16.5043 -63.4547L 15.2739 -60.0646L 14.0947 -56.5020L 12.9738 -52.7767L 11.9176 -48.8990L 10.9325 -44.8799L 10.0241 -40.7306L 9.1978 -36.4631L 8.4582 -32.0896L 7.8097 -27.6226L 7.2561 -23.0751L 6.8003 -18.4603L 6.4452 -13.7915L 6.1926 -9.0825L 6.0441 -4.3469L 6.0004 0.4014L 6.0618 5.1485L 6.2280 9.8806L 6.4981 14.5838L 6.8704 19.2444L 7.3428 23.8488L 7.9128 28.3836L 8.5769 32.8357L 9.3314 37.1922L 10.1720 41.4405L 11.0937 45.5686L 12.0913 49.5646L 13.1588 53.4173L 14.2901 57.1158L 15.4785 60.6499L 16.7168 64.0099L 17.9977 67.1866L 19.3133 70.1716L 20.6558 72.9570L 22.0167 75.5356L 23.3877 77.9009L 24.7599 80.0473L 26.1246 81.9698L 27.4729 83.6640L 28.7959 85.1265L 30.0844 86.3545L 31.3296 87.3462L 32.5225 88.1004L 33.6543 88.6167L 34.7165 88.8956L 35.7004 88.9382L 36.5980 88.7466L 37.4011 88.3234L 38.1021 87.6721L 38.6938 86.7969L 39.1690 85.7027L 39.5213 84.3952L 39.7445 82.8805L 39.8330 81.1657L 39.7817 79.2581L 39.5858 77.1660L 39.2415 74.8978L 38.7450 72.4629L 38.0937 69.8708L 37.2851 67.1315L 36.3176 64.2556L 35.1903 61.2538L 33.9027 58.1372L 32.4552 54.9174L 30.8488 51.6059L 29.0851 48.2145L 27.1663 44.7552L 25.0956 41.2400L 22.8766 37.6811L 20.5136 34.0905L 18.0114 30.4803L 15.3758 26.8625L 12.6129 23.2489L 9.7294 19.6513L 6.7329 16.0809L 3.6312 12.5491L 0.4327 9.0668L -2.8536 5.6445L -6.2183 2.2924L -9.6514 -0.9797L -13.1429 -4.1624L -16.6820 -7.2470L -20.2577 -10.2249L -23.8589 -13.0885L -27.4740 -15.8304L -31.0914 -18.4438L -34.6991 -20.9228L -38.2852 -23.2619L -41.8375 -25.4561L -45.3441 -27.5014L -48.7928 -29.3941L -52.1715 -31.1314L -55.4684 -32.7111L -58.6715 -34.1316L -61.7695 -35.3921L -64.7508 -36.4923L -67.6044 -37.4329L -70.3195 -38.2147L -72.8857 -38.8397L -75.2932 -39.3102L -77.5322 -39.6293L -79.5937 -39.8004L -81.4692 -39.8278L -83.1508 -39.7161L -84.6309 -39.4707L -85.9028 -39.0972L -86.9603 -38.6018L -87.7980 -37.9912L -88.4110 -37.2723L -88.7953 -36.4527L -88.9475 -35.5400L -88.8651 -34.5422L -88.5462 -33.4677L -87.9896 -32.3249L -87.1953 -31.1225L -86.1635 -29.8694L -84.8957 -28.5744L -83.3938 -27.2466L -81.6608 -25.8949L -79.7002 -24.5283L -77.5164 -23.1556L -75.1146 -21.7858L -72.5005 -20.4274L -69.6809 -19.0889L -66.6630 -17.7785L -63.4547 -16.5043L -60.0646 -15.2739L -56.5020 -14.0947L -52.7767 -12.9738L -48.8990 -11.9176L -44.8799 -10.9325L -40.7306 -10.0241L -36.4631 -9.1978L -32.0896 -8.4582L -27.6226 -7.8097L -23.0751 -7.2561L -18.4603 -6.8003L -13.7915 -6.4452L -9.0825 -6.1926L -4.3469 -6.0441L 0.4014 -6.0004L 5.1485 -6.0618L 9.8806 -6.2280L 14.5838 -6.4981L 19.2444 -6.8704L 23.8488 -7.3428L 28.3836 -7.9128L 32.8357 -8.5769L 37.1922 -9.3314L 41.4405 -10.1720L 45.5686 -11.0937L 49.5646 -12.0913L 53.4173 -13.1588L 57.1158 -14.2901L 60.6499 -15.4785L 64.0099 -16.7168L 67.1866 -17.9977L 70.1716 -19.3133L 72.9570 -20.6558L 75.5356 -22.0167L 77.9009 -23.3877L 80.0473 -24.7599L 81.9698 -26.1246L 83.6640 -27.4729L 85.1265 -28.7959L 86.3545 -30.0844L 87.3462 -31.3296" /><path stroke="#00ff406f" stroke-width="1" fill="none" 
				d="M 140.7081 -140.8058 L 141.1024 -141.0673L 138.2984 -136.9329L 134.1932 -127.6598L 130.8328 -113.4005L 130.0175 -95.1805L 132.9551 -74.7095L 140.0265 -54.0634L 150.7094 -35.2955L 163.6748 -20.0540L 177.0369 -9.2751L 188.7100 -3.0132L 196.8034 -0.4378L 199.9803 -0.0002L 197.7112 0.2643L 190.3745 2.3538L 179.1847 7.9117L 165.9620 17.9058L 152.7868 32.4360L 141.6056 50.7074L 133.8630 71.1738L 130.2288 91.8245L 130.4741 110.5595L 133.5185 125.5822L 137.6397 135.7338L 140.8058 140.7081L 141.0673 141.1024L 136.9329 138.2984L 127.6598 134.1932L 113.4005 130.8328L 95.1805 130.0175L 74.7095 132.9551L 54.0634 140.0265L 35.2955 150.7094L 20.0540 163.6748L 9.2751 177.0369L 3.0132 188.7100L 0.4378 196.8034L 0.0002 199.9803L -0.2643 197.7112L -2.3538 190.3745L -7.9117 179.1847L -17.9058 165.9620L -32.4360 152.7868L -50.7074 141.6056L -71.1738 133.8630L -91.8245 130.2288L -110.5595 130.4741L -125.5822 133.5185L -135.7338 137.6397L -140.7081 140.8058L -141.1024 141.0673L -138.2984 136.9329L -134.1932 127.6598L -130.8328 113.4005L -130.0175 95.1805L -132.9551 74.7095L -140.0265 54.0634L -150.7094 35.2955L -163.6748 20.0540L -177.0369 9.2751L -188.7100 3.0132L -196.8034 0.4378L -199.9803 0.0002L -197.7112 -0.2643L -190.3745 -2.3538L -179.1847 -7.9117L -165.9620 -17.9058L -152.7868 -32.4360L -141.6056 -50.7074L -133.8630 -71.1738L -130.2288 -91.8245L -130.4741 -110.5595L -133.5185 -125.5822L -137.6397 -135.7338L -140.8058 -140.7081L -141.0673 -141.1024L -136.9329 -138.2984L -127.6598 -134.1932L -113.4005 -130.8328L -95.1805 -130.0175L -74.7095 -132.9551L -54.0634 -140.0265L -35.2955 -150.7094L -20.0540 -163.6748L -9.2751 -177.0369L -3.0132 -188.7100L -0.4378 -196.8034L -0.0002 -199.9803L 0.2643 -197.7112L 2.3538 -190.3745L 7.9117 -179.1847L 17.9058 -165.9620L 32.4360 -152.7868L 50.7074 -141.6056L 71.1738 -133.8630L 91.8245 -130.2288L 110.5595 -130.4741L 125.5822 -133.5185L 135.7338 -137.6397" /><path stroke="#00ff406f" stroke-width="1" fill="none" 
				d="M 17.9058 -173.4995 L 32.4360 -180.6526L 50.7074 -184.4956L 71.1738 -183.6132L 91.8245 -177.3695L 110.5595 -166.0322L 125.5822 -150.7257L 135.7338 -133.2207L 140.7081 -115.6017L 141.1024 -99.8756L 138.2984 -87.5943L 134.1932 -79.5656L 130.8328 -75.7053L 130.0175 -75.0595L 132.9551 -75.9926L 140.0265 -76.5063L 150.7094 -74.6263L 163.6748 -68.7863L 177.0369 -58.1329L 188.7100 -42.6965L 196.8034 -23.3932L 199.9803 -1.8582L 197.7112 19.8574L 190.3745 39.6685L 179.1847 55.8454L 165.9620 67.3344L 152.7868 73.9510L 141.6056 76.4065L 133.8630 76.1654L 130.2288 75.1584L 130.4741 75.4081L 133.5185 78.6363L 137.6397 85.9295L 140.8058 97.5253L 141.0673 112.7609L 136.9329 130.1928L 127.6598 147.8664L 113.4005 163.6821L 95.1805 175.7902L 74.7095 182.9386L 54.0634 184.7066L 35.2955 181.5814L 20.0540 174.8624L 9.2751 166.4106L 3.0132 158.2924L 0.4378 152.3844L 0.0002 150.0148L -0.2643 151.7100L -2.3538 157.0937L -7.9117 164.9592L -17.9058 173.4995L -32.4360 180.6526L -50.7074 184.4956L -71.1738 183.6132L -91.8245 177.3695L -110.5595 166.0322L -125.5822 150.7257L -135.7338 133.2207L -140.7081 115.6017L -141.1024 99.8756L -138.2984 87.5943L -134.1932 79.5656L -130.8328 75.7053L -130.0175 75.0595L -132.9551 75.9926L -140.0265 76.5063L -150.7094 74.6263L -163.6748 68.7863L -177.0369 58.1329L -188.7100 42.6965L -196.8034 23.3932L -199.9803 1.8582L -197.7112 -19.8574L -190.3745 -39.6685L -179.1847 -55.8454L -165.9620 -67.3344L -152.7868 -73.9510L -141.6056 -76.4065L -133.8630 -76.1654L -130.2288 -75.1584L -130.4741 -75.4081L -133.5185 -78.6363L -137.6397 -85.9295L -140.8058 -97.5253L -141.0673 -112.7609L -136.9329 -130.1928L -127.6598 -147.8664L -113.4005 -163.6821L -95.1805 -175.7902L -74.7095 -182.9386L -54.0634 -184.7066L -35.2955 -181.5814L -20.0540 -174.8624L -9.2751 -166.4106L -3.0132 -158.2924L -0.4378 -152.3844L -0.0002 -150.0148L 0.2643 -151.7100L 2.3538 -157.0937L 7.9117 -164.9592" /><path stroke="#00ff406f" stroke-width="1" fill="none" 
				d="M 33.5012 -134.6836 L 47.6861 -133.6883L 61.9271 -130.0211L 75.5201 -123.7208L 87.7999 -115.0277L 98.1982 -104.3638L 106.2926 -92.2954L 111.8428 -79.4844L 114.8105 -66.6294L 115.3606 -54.4050L 113.8451 -43.4027L 110.7694 -34.0793L 106.7455 -26.7181L 102.4350 -21.4054L 98.4887 -18.0248L 95.4866 -16.2705L 93.8844 -15.6768L 93.9722 -15.6631L 95.8473 -15.5883L 99.4050 -14.8116L 104.3481 -12.7529L 110.2134 -8.9474L 116.4136 -3.0905L 122.2907 4.9323L 127.1755 15.0328L 130.4488 26.9250L 131.5980 40.1488L 130.2640 54.1092L 126.2750 68.1272L 119.6627 81.4994L 110.6610 93.5588L 99.6866 103.7331L 87.3022 111.5944L 74.1681 116.8954L 60.9841 119.5907L 48.4283 119.8386L 37.0978 117.9853L 27.4569 114.5322L 19.7979 110.0898L 14.2161 105.3205L 10.6044 100.8786L 8.6648 97.3500L 7.9381 95.1985L 7.8477 94.7236L 7.7542 96.0327L 7.0157 99.0317L 5.0484 103.4328L 1.3816 108.7809L -4.2969 114.4948L -12.1104 119.9202L -21.9794 124.3891L -33.6264 127.2809L -46.5988 128.0792L -60.3068 126.4196L -74.0750 122.1238L -87.2005 115.2164L -99.0150 105.9250L -108.9422 94.6605L -116.5488 81.9821L -121.5808 68.5485L -123.9858 55.0601L -123.9151 42.1983L -121.7096 30.5658L -117.8666 20.6345L -112.9949 12.7049L -107.7577 6.8818L -102.8129 3.0669L -98.7520 0.9701L -96.0469 0.1387L -95.0064 0.0001L -95.7484 -0.0836L -98.1889 -0.7552L -102.0498 -2.6024L -106.8841 -6.1017L -112.1170 -11.5730L -117.0977 -19.1483L -121.1595 -28.7573L -123.6804 -40.1312L -124.1406 -52.8245L -122.1701 -66.2534L -117.5840 -79.7458L -110.4002 -92.6000L -100.8392 -104.1461L -89.3066 -113.8044L -76.3575 -121.1360L -62.6488 -125.8806L -48.8817 -127.9787L -35.7405 -127.5749L -23.8334 -125.0043L -13.6392 -120.7606L -5.4672 -115.4505L 0.5690 -109.7382L 4.5587 -104.2848L 6.7841 -99.6876L 7.6917 -96.4265L 7.8499 -94.8196L 7.8951 -94.9951L 8.4714 -96.8793L 10.1699 -100.2037L 13.4732 -104.5296L 18.7090 -109.2883L 26.0181 -113.8331L 35.3394 -117.4984L 46.4126 -119.6609L 58.8003 -119.7973L 71.9242 -117.5321L 85.1160 -112.6739L 97.6753 -105.2334L 108.9309 -95.4245L 118.2998 -83.6469L 125.3377 -70.4517L 129.7780 -56.4936L 131.5541 -42.4744L 130.8042 -29.0813L 127.8575 -16.9275L 123.2038 -6.4990L 117.4481 1.8868L 111.2552 8.1072L 105.2894 12.2429L 100.1539 14.5681L 96.3362 15.5232L 94.1640 15.6726L 93.7754 15.6509L 95.1073 16.1034L 97.9008 17.6251L 101.7254 20.7044L 106.0188 25.6770L 110.1381 32.6924L 113.4191 41.6989L 115.2374 52.4452L 115.0658 64.5015L 112.5237 77.2957L 107.4129 90.1634L 99.7370 102.4055L 89.7031 113.3499L 77.7048 122.4101L 64.2890 129.1371L 50.1084 133.2577L 35.8647 134.6984L 22.2479 133.5910L 9.8762 130.2589L -0.7577 125.1879L -9.3281 118.9811L -15.7036 112.3039L -19.9562 105.8239L -22.3523 100.1498L -23.3262 95.7769L -23.4382 93.0421L -23.3213 92.0939L -23.6221 92.8794L -24.9393 95.1493L -27.7673 98.4816L -32.4495 102.3202L -39.1447 106.0262L -47.8103 108.9368L -58.2043 110.4264L -69.9046 109.9643L -82.3456 107.1645L -94.8668 101.8220L -106.7707 93.9333L -117.3845 83.6984L -126.1186 71.5049L -132.5188 57.8951L -136.3059 43.5195L -137.3997 29.0797L -135.9250 15.2683L -132.2000 2.7079L -126.7061 -8.1018L -120.0445 -16.8273L -112.8813 -23.3284L -105.8870 -27.6687L -99.6759 -30.1068L -94.7510 -31.0709L -91.4585 -31.1172L -89.9569 -30.8774L -90.2036 -30.9990L -91.9592 -32.0844L -94.8098 -34.6344L -98.2058 -39.0000L -101.5124 -45.3492L -104.0681 -53.6489L -105.2461 -63.6662L -104.5124 -74.9873L -101.4753 -87.0527L -95.9234 -99.2064L -87.8455 -110.7527L -77.4348 -121.0180L -65.0724 -129.4099L -51.2963 -135.4693L -36.7541 -138.9108L -22.1474 -139.6476L -8.1708 -137.7979L 4.5483 -133.6740L 15.5040 -127.7535L 24.3547 -120.6354L 30.9520 -112.9862L 35.3507 -105.4795L 37.8020 -98.7350L 38.7279 -93.2632L 38.6806 -89.4195L 38.2904 -87.3726L 38.2058 -87.0901L 39.0331 -88.3422L 41.2791 -90.7235L 45.3028 -93.6908L 51.2812 -96.6133L 59.1910 -98.8311L 68.8086 -99.7162L 79.7283 -98.7310L 91.3973 -95.4785L 103.1640 -89.7404L 114.3347 -81.4983L 124.2352 -70.9378L 132.2704 -58.4340L 137.9766 -44.5198L 141.0622 -29.8401L 141.4337 -15.0961L 139.2028 -0.9844L 134.6762 11.8632L 128.3271 22.9347L 120.7526 31.8808L 112.6194 38.5445L 104.6040 42.9725L 97.3315 45.4084L 91.3197 46.2680L 86.9333 46.0997L 84.3509 45.5322L 83.5503 45.2152L 84.3116 45.7587L 86.2377 47.6757L 88.7918 51.3332L 91.3472 56.9173L 93.2454 64.4144L 93.8575 73.6104L 92.6423 84.1079L 89.1975 95.3611L 83.2976 106.7227L 74.9170 117.5013L 64.2338 127.0225L 51.6167 134.6883L 37.5935 140.0304L 22.8060 142.7516L 7.9549 142.7514L -6.2614 140.1351L -19.2072 135.2036L -30.3642 128.4259L -39.3756 120.3969L -46.0763 111.7835L -50.5047 103.2650L -52.8969 95.4716L -53.6627 88.9287L -53.3465 84.0097L -52.5754 80.9034L -52.0005 79.5979L -52.2356 79.8826L -53.7995 81.3691L -57.0675 83.5269L -62.2349 85.7335L -69.2978 87.3321L -78.0517 87.6924L -88.1080 86.2699L -98.9273 82.6567L -109.8674 76.6205L -120.2391 68.1281L -129.3678 57.3502L -136.6532 44.6485L -141.6224 30.5458L -143.9722 15.6807L -143.5957 0.7531L -140.5916 -13.5373L -135.2550 -26.5506L -128.0505 -37.7627L -119.5708 -46.8097L -110.4829 -53.5181L -101.4687 -57.9183L -93.1635 -60.2388L -86.1000 -60.8837L -80.6605 -60.3934L -77.0437 -59.3935L -75.2477 -58.5361L -75.0718 -58.4389L -76.1358 -59.6269L -77.9157 -62.4833L -79.7934 -67.2129L -81.1133 -73.8216L -81.2443 -82.1144L -79.6382 -91.7115L -75.8817 -102.0806L -69.7356 -112.5843L -61.1589 -122.5361L -50.3146 -131.2611L -37.5578 -138.1568L -23.4057 -142.7459L -8.4936 -144.7194L 6.4799 -143.9639L 20.8134 -140.5713L 33.8637 -134.8311L 45.1007 -127.2035L 54.1535 -118.2788L 60.8407 -108.7239L 65.1844 -99.2232L 67.4061 -90.4171L 67.9038 -82.8454L 67.2139 -76.8990L 65.9606 -72.7866L 64.7972 -70.5164L 64.3451 -69.8973L 65.1354 -70.5574L 67.5595 -71.9793L 71.8315 -73.5490L 77.9673 -74.6125L 85.7816 -74.5376L 94.9033 -72.7728L 104.8075 -68.8990L 114.8617 -62.6701L 124.3820 -54.0372L 132.6940 -43.1558L 139.1925 -30.3737L 143.3961 -16.2026L 144.9902 -1.2742L 143.8546 13.7142L 140.0750 28.0601L 133.9346 41.1168L 125.8894 52.3488L 116.5271 61.3781L 106.5146 68.0155L 96.5385 72.2752L 87.2441 74.3714L 79.1781 74.6962L 72.7402 73.7821L 68.1488 72.2520L 65.4222 70.7601L 64.3787 69.9316L 64.6549 70.3039L 65.7399 72.2763L 67.0238 76.0724L 67.8543 81.7181L 67.5981 89.0380L 65.7001 97.6698L 61.7358 107.0960L 55.4518 116.6893L 46.7916 125.7686L 35.9025 133.6597L 23.1254 139.7554L 8.9660 143.5701L -5.9478 144.7834L -20.9201 143.2688L -35.2478 139.1051L -48.2806 132.5699L -59.4779 124.1145L -68.4548 114.3240L -75.0144 103.8649L -79.1632 93.4262L -81.1080 83.6577L -81.2352 75.1131L -80.0735 68.2007L -78.2440 63.1484L -76.4024 59.9845L -75.1773 58.5369L -75.1125 58.4505L -76.6153 59.2209L -79.9187 60.2423L -85.0588 60.8642L -91.8699 60.4521L -99.9990 58.4475L -108.9359 54.4200L -118.0587 48.1094L -126.6892 39.4510L -134.1536 28.5842L -139.8427 15.8424L -143.2668 1.7255L -144.0999 -13.1427L -142.2090 -28.0683L -137.6663 -42.3471L -130.7434 -55.3260L -121.8869 -66.4594L -111.6792 -75.3556L -100.7864 -81.8101L -89.8995 -85.8218L -79.6730 -87.5903L -70.6671 -87.4962L -63.2986 -86.0643L -57.8050 -83.9143L -54.2244 -81.7028L -52.3943 -80.0625L -51.9677 -79.5429L -52.4469 -80.5597L -53.2303 -83.3552L -53.6688 -87.9757L -53.1270 -94.2656L -51.0428 -101.8809L -46.9803 -110.3189L -40.6719 -118.9634L -32.0449 -127.1391L -21.2305 -134.1728L -8.5546 -139.4533L 5.4891 -142.4870L 20.2810 -142.9423L 35.1291 -140.6797L 49.3290 -135.7648L 62.2246 -128.4630L 73.2653 -119.2164L 82.0530 -108.6044L 88.3760 -97.2925L 92.2252 -85.9735L 93.7935 -75.3065L 93.4554 -65.8580L 91.7321 -58.0534L 89.2415 -52.1395L 86.6416 -48.1641L 84.5685 -45.9742L 83.5781 -45.2311L 84.0940 -45.4435L 86.3682 -46.0140L 90.4569 -46.2953L 96.2148 -45.6507L 103.3069 -43.5147L 111.2384 -39.4456L 119.3985 -33.1686L 127.1153 -24.6027L 133.7161 -13.8710L 138.5880 -1.2915L 141.2334 12.6482L 141.3151 27.3332L 138.6872 42.0737L 133.4087 56.1649L 125.7388 68.9481L 116.1148 79.8682L 105.1128 88.5207L 93.3980 94.6864L 81.6647 98.3489L 70.5762 99.6939L 60.7056 99.0904L 52.4861 97.0556L 46.1740 94.2059L 41.8270 91.2003L 39.3012 88.6787L 38.2662 87.2030L 38.2372 87.2048L 38.6209 88.9457L 38.7717 92.4922L 38.0518 97.7090L 35.8921 104.2704L 31.8453 111.6896L 25.6290 119.3612L 17.1542 126.6168L 6.5354 132.7844L -5.9172 137.2494L -19.7226 139.5104L -34.2705 139.2246L -48.8735 136.2397L -62.8268 130.6080L -75.4694 122.5824L -86.2416 112.5952L -94.7327 101.2196L -100.7165 89.1195L -104.1690 76.9912L -105.2691 65.5017L -104.3800 55.2305L -102.0150 46.6189L -98.7890 39.9322L -95.3621 35.2377L -92.3776 32.4008L -90.4037 31.0995L -89.8800 30.8552L -91.0776 31.0789L -94.0731 31.1265L -98.7416 30.3594L -104.7668 28.2045L -111.6695 24.2090L -118.8504 18.0830L -125.6444 9.7292L -131.3804 -0.7466L -135.4421 -13.0421L -137.3244 -26.6831L -136.6790 -41.0641L -133.3471 -55.5004L -127.3742 -69.2874L -119.0070 -81.7619L -108.6727 -92.3598L -96.9411 -100.6646L -84.4752 -106.4428L -71.9725 -109.6633L -60.1039 -110.4979L -49.4551 -109.3044L -40.4751 -106.5919L -33.4383 -102.9740L -28.4216 -99.1115L -25.2996 -95.6517L -23.7583 -93.1683L -23.3255 -92.1094L -23.4166 -92.7553L -23.3889 -95.1931L -22.6028 -99.3079L -20.4815 -104.7930L -16.5664 -111.1772L -10.5603 -117.8670L -2.3572 -124.2009L 7.9457 -129.5086L 20.0542 -133.1725L 33.5012 -134.6836L 47.6861 -133.6883L 61.9271 -130.0211L 75.5201 -123.7208L 87.7999 -115.0277L 98.1982 -104.3638L 106.2926 -92.2954L 111.8428 -79.4844L 114.8105 -66.6294L 115.3606 -54.4050L 113.8451 -43.4027L 110.7694 -34.0793L 106.7455 -26.7181L 102.4350 -21.4054L 98.4887 -18.0248L 95.4866 -16.2705L 93.8844 -15.6768L 93.9722 -15.6631L 95.8473 -15.5883L 99.4050 -14.8116L 104.3481 -12.7529L 110.2134 -8.9474L 116.4136 -3.0905L 122.2907 4.9323L 127.1755 15.0328L 130.4488 26.9250L 131.5980 40.1488L 130.2640 54.1092L 126.2750 68.1272L 119.6627 81.4994L 110.6610 93.5588L 99.6866 103.7331L 87.3022 111.5944L 74.1681 116.8954L 60.9841 119.5907L 48.4283 119.8386L 37.0978 117.9853L 27.4569 114.5322L 19.7979 110.0898L 14.2161 105.3205L 10.6044 100.8786L 8.6648 97.3500L 7.9381 95.1985L 7.8477 94.7236L 7.7542 96.0327L 7.0157 99.0317L 5.0484 103.4328L 1.3816 108.7809L -4.2969 114.4948L -12.1104 119.9202L -21.9794 124.3891L -33.6264 127.2809L -46.5988 128.0792L -60.3068 126.4196L -74.0750 122.1238L -87.2005 115.2164L -99.0150 105.9250L -108.9422 94.6605L -116.5488 81.9821L -121.5808 68.5485L -123.9858 55.0601L -123.9151 42.1983L -121.7096 30.5658L -117.8666 20.6345L -112.9949 12.7049L -107.7577 6.8818L -102.8129 3.0669L -98.7520 0.9701L -96.0469 0.1387L -95.0064 0.0001L -95.7484 -0.0836L -98.1889 -0.7552L -102.0498 -2.6024L -106.8841 -6.1017L -112.1170 -11.5730L -117.0977 -19.1483L -121.1595 -28.7573L -123.6804 -40.1312L -124.1406 -52.8245L -122.1701 -66.2534L -117.5840 -79.7458L -110.4002 -92.6000L -100.8392 -104.1461L -89.3066 -113.8044L -76.3575 -121.1360L -62.6488 -125.8806L -48.8817 -127.9787L -35.7405 -127.5749L -23.8334 -125.0043L -13.6392 -120.7606L -5.4672 -115.4505L 0.5690 -109.7382L 4.5587 -104.2848L 6.7841 -99.6876L 7.6917 -96.4265L 7.8499 -94.8196L 7.8951 -94.9951L 8.4714 -96.8793L 10.1699 -100.2037L 13.4732 -104.5296L 18.7090 -109.2883L 26.0181 -113.8331L 35.3394 -117.4984L 46.4126 -119.6609L 58.8003 -119.7973L 71.9242 -117.5321L 85.1160 -112.6739L 97.6753 -105.2334L 108.9309 -95.4245L 118.2998 -83.6469L 125.3377 -70.4517L 129.7780 -56.4936L 131.5541 -42.4744L 130.8042 -29.0813L 127.8575 -16.9275L 123.2038 -6.4990L 117.4481 1.8868L 111.2552 8.1072L 105.2894 12.2429L 100.1539 14.5681L 96.3362 15.5232L 94.1640 15.6726L 93.7754 15.6509L 95.1073 16.1034L 97.9008 17.6251L 101.7254 20.7044L 106.0188 25.6770L 110.1381 32.6924L 113.4191 41.6989L 115.2374 52.4452L 115.0658 64.5015L 112.5237 77.2957L 107.4129 90.1634L 99.7370 102.4055L 89.7031 113.3499L 77.7048 122.4101L 64.2890 129.1371L 50.1084 133.2577L 35.8647 134.6984L 22.2479 133.5910L 9.8762 130.2589L -0.7577 125.1879L -9.3281 118.9811L -15.7036 112.3039L -19.9562 105.8239L -22.3523 100.1498L -23.3262 95.7769L -23.4382 93.0421L -23.3213 92.0939L -23.6221 92.8794L -24.9393 95.1493L -27.7673 98.4816L -32.4495 102.3202L -39.1447 106.0262L -47.8103 108.9368L -58.2043 110.4264L -69.9046 109.9643L -82.3456 107.1645L -94.8668 101.8220L -106.7707 93.9333L -117.3845 83.6984L -126.1186 71.5049L -132.5188 57.8951L -136.3059 43.5195L -137.3997 29.0797L -135.9250 15.2683L -132.2000 2.7079L -126.7061 -8.1018L -120.0445 -16.8273L -112.8813 -23.3284L -105.8870 -27.6687L -99.6759 -30.1068L -94.7510 -31.0709L -91.4585 -31.1172L -89.9569 -30.8774L -90.2036 -30.9990L -91.9592 -32.0844L -94.8098 -34.6344L -98.2058 -39.0000L -101.5124 -45.3492L -104.0681 -53.6489L -105.2461 -63.6662L -104.5124 -74.9873L -101.4753 -87.0527L -95.9234 -99.2064L -87.8455 -110.7527L -77.4348 -121.0180L -65.0724 -129.4099L -51.2963 -135.4693L -36.7541 -138.9108L -22.1474 -139.6476L -8.1708 -137.7979L 4.5483 -133.6740L 15.5040 -127.7535L 24.3547 -120.6354L 30.9520 -112.9862L 35.3507 -105.4795L 37.8020 -98.7350L 38.7279 -93.2632L 38.6806 -89.4195L 38.2904 -87.3726L 38.2058 -87.0901L 39.0331 -88.3422L 41.2791 -90.7235L 45.3028 -93.6908L 51.2812 -96.6133L 59.1910 -98.8311L 68.8086 -99.7162L 79.7283 -98.7310L 91.3973 -95.4785L 103.1640 -89.7404L 114.3347 -81.4983L 124.2352 -70.9378L 132.2704 -58.4340L 137.9766 -44.5198L 141.0622 -29.8401L 141.4337 -15.0961L 139.2028 -0.9844L 134.6762 11.8632L 128.3271 22.9347L 120.7526 31.8808L 112.6194 38.5445L 104.6040 42.9725L 97.3315 45.4084L 91.3197 46.2680L 86.9333 46.0997L 84.3509 45.5322L 83.5503 45.2152L 84.3116 45.7587L 86.2377 47.6757L 88.7918 51.3332L 91.3472 56.9173L 93.2454 64.4144L 93.8575 73.6104L 92.6423 84.1079L 89.1975 95.3611L 83.2976 106.7227L 74.9170 117.5013L 64.2338 127.0225L 51.6167 134.6883L 37.5935 140.0304L 22.8060 142.7516L 7.9549 142.7514L -6.2614 140.1351L -19.2072 135.2036L -30.3642 128.4259L -39.3756 120.3969L -46.0763 111.7835L -50.5047 103.2650L -52.8969 95.4716L -53.6627 88.9287L -53.3465 84.0097L -52.5754 80.9034L -52.0005 79.5979L -52.2356 79.8826L -53.7995 81.3691L -57.0675 83.5269L -62.2349 85.7335L -69.2978 87.3321L -78.0517 87.6924L -88.1080 86.2699L -98.9273 82.6567L -109.8674 76.6205L -120.2391 68.1281L -129.3678 57.3502L -136.6532 44.6485L -141.6224 30.5458L -143.9722 15.6807L -143.5957 0.7531L -140.5916 -13.5373L -135.2550 -26.5506L -128.0505 -37.7627L -119.5708 -46.8097L -110.4829 -53.5181L -101.4687 -57.9183L -93.1635 -60.2388L -86.1000 -60.8837L -80.6605 -60.3934L -77.0437 -59.3935L -75.2477 -58.5361L -75.0718 -58.4389L -76.1358 -59.6269L -77.9157 -62.4833L -79.7934 -67.2129L -81.1133 -73.8216L -81.2443 -82.1144L -79.6382 -91.7115L -75.8817 -102.0806L -69.7356 -112.5843L -61.1589 -122.5361L -50.3146 -131.2611L -37.5578 -138.1568L -23.4057 -142.7459L -8.4936 -144.7194L 6.4799 -143.9639L 20.8134 -140.5713L 33.8637 -134.8311L 45.1007 -127.2035L 54.1535 -118.2788L 60.8407 -108.7239L 65.1844 -99.2232L 67.4061 -90.4171L 67.9038 -82.8454L 67.2139 -76.8990L 65.9606 -72.7866L 64.7972 -70.5164L 64.3451 -69.8973L 65.1354 -70.5574L 67.5595 -71.9793L 71.8315 -73.5490L 77.9673 -74.6125L 85.7816 -74.5376L 94.9033 -72.7728L 104.8075 -68.8990L 114.8617 -62.6701L 124.3820 -54.0372L 132.6940 -43.1558L 139.1925 -30.3737L 143.3961 -16.2026L 144.9902 -1.2742L 143.8546 13.7142L 140.0750 28.0601L 133.9346 41.1168L 125.8894 52.3488L 116.5271 61.3781L 106.5146 68.0155L 96.5385 72.2752L 87.2441 74.3714L 79.1781 74.6962L 72.7402 73.7821L 68.1488 72.2520L 65.4222 70.7601L 64.3787 69.9316L 64.6549 70.3039L 65.7399 72.2763L 67.0238 76.0724L 67.8543 81.7181L 67.5981 89.0380L 65.7001 97.6698L 61.7358 107.0960L 55.4518 116.6893L 46.7916 125.7686L 35.9025 133.6597L 23.1254 139.7554L 8.9660 143.5701L -5.9478 144.7834L -20.9201 143.2688L -35.2478 139.1051L -48.2806 132.5699L -59.4779 124.1145L -68.4548 114.3240L -75.0144 103.8649L -79.1632 93.4262L -81.1080 83.6577L -81.2352 75.1131L -80.0735 68.2007L -78.2440 63.1484L -76.4024 59.9845L -75.1773 58.5369L -75.1125 58.4505L -76.6153 59.2209L -79.9187 60.2423L -85.0588 60.8642L -91.8699 60.4521L -99.9990 58.4475L -108.9359 54.4200L -118.0587 48.1094L -126.6892 39.4510L -134.1536 28.5842L -139.8427 15.8424L -143.2668 1.7255L -144.0999 -13.1427L -142.2090 -28.0683L -137.6663 -42.3471L -130.7434 -55.3260L -121.8869 -66.4594L -111.6792 -75.3556L -100.7864 -81.8101L -89.8995 -85.8218L -79.6730 -87.5903L -70.6671 -87.4962L -63.2986 -86.0643L -57.8050 -83.9143L -54.2244 -81.7028L -52.3943 -80.0625L -51.9677 -79.5429L -52.4469 -80.5597L -53.2303 -83.3552L -53.6688 -87.9757L -53.1270 -94.2656L -51.0428 -101.8809L -46.9803 -110.3189L -40.6719 -118.9634L -32.0449 -127.1391L -21.2305 -134.1728L -8.5546 -139.4533L 5.4891 -142.4870L 20.2810 -142.9423L 35.1291 -140.6797L 49.3290 -135.7648L 62.2246 -128.4630L 73.2653 -119.2164L 82.0530 -108.6044L 88.3760 -97.2925L 92.2252 -85.9735L 93.7935 -75.3065L 93.4554 -65.8580L 91.7321 -58.0534L 89.2415 -52.1395L 86.6416 -48.1641L 84.5685 -45.9742L 83.5781 -45.2311L 84.0940 -45.4435L 86.3682 -46.0140L 90.4569 -46.2953L 96.2148 -45.6507L 103.3069 -43.5147L 111.2384 -39.4456L 119.3985 -33.1686L 127.1153 -24.6027L 133.7161 -13.8710L 138.5880 -1.2915L 141.2334 12.6482L 141.3151 27.3332L 138.6872 42.0737L 133.4087 56.1649L 125.7388 68.9481L 116.1148 79.8682L 105.1128 88.5207L 93.3980 94.6864L 81.6647 98.3489L 70.5762 99.6939L 60.7056 99.0904L 52.4861 97.0556L 46.1740 94.2059L 41.8270 91.2003L 39.3012 88.6787L 38.2662 87.2030L 38.2372 87.2048L 38.6209 88.9457L 38.7717 92.4922L 38.0518 97.7090L 35.8921 104.2704L 31.8453 111.6896L 25.6290 119.3612L 17.1542 126.6168L 6.5354 132.7844L -5.9172 137.2494L -19.7226 139.5104L -34.2705 139.2246L -48.8735 136.2397L -62.8268 130.6080L -75.4694 122.5824L -86.2416 112.5952L -94.7327 101.2196L -100.7165 89.1195L -104.1690 76.9912L -105.2691 65.5017L -104.3800 55.2305L -102.0150 46.6189L -98.7890 39.9322L -95.3621 35.2377L -92.3776 32.4008L -90.4037 31.0995L -89.8800 30.8552L -91.0776 31.0789L -94.0731 31.1265L -98.7416 30.3594L -104.7668 28.2045L -111.6695 24.2090" /></svg>