<!-- 	author: Arthur Botelho
		github: https://github.com/arthurbotelho/Spirograph
		--><svg xmlns="http://www.w3.org/2000/svg" xmlns:xlink="http://www.w3.org/1999/xlink" viewBox="-53.5 -51.5 107 103">
	<path stroke="#10ff5a90" stroke-width="1" fill="none"
		d="M 44.3536 12.4454 L 44.0073 12.6196L 43.6656 12.7747L 43.3296 12.9111L 43.0004 13.0294L 42.6791 13.1300L 42.3668 13.2137L 42.0646 13.2810L 41.7734 13.3327L 41.4941 13.3697L 41.2277 13.3927L 40.9750 13.4028L 40.7367 13.4008L 40.5135 13.3879L 40.3061 13.3649L 40.1150 13.3332L 39.9408 13.2936L 39.7839 13.2475L 39.6446 13.1960L 39.5232 13.1403L 39.4200 13.0816L 39.3349 13.0212L 39.2682 12.9602L 39.2197 12.8999L 39.1893 12.8416L 39.1770 12.7864L 39.1823 12.7356L 39.2050 12.6902L 39.2446 12.6516L 39.3007 12.6208L 39.3727 12.5990L 39.4601 12.5871L 39.5620 12.5862L 39.6778 12.5973L 39.8066 12.6213L 39.9476 12.6591L 40.0998 12.7115L 40.2624 12.7793L 40.4342 12.8631L 40.6141 12.9635L 40.8012 13.0813L 40.9943 13.2167L 41.1921 13.3703L 41.3936 13.5424L 41.5975 13.7333L 41.8026 13.9431L 42.0077 14.1720L 42.2115 14.4199L 42.4128 14.6870L 42.6104 14.9730L 42.8030 15.2777L 42.9895 15.6010L 43.1686 15.9424L 43.3391 16.3014L 43.5001 16.6777L 43.6503 17.0707L 43.7886 17.4797L 43.9141 17.9040L 44.0258 18.3428L 44.1227 18.7954L 44.2040 19.2609L 44.2689 19.7383L 44.3165 20.2266L 44.3462 20.7248L 44.3573 21.2319L 44.3494 21.7467L 44.3218 22.2682L 44.2743 22.7950L 44.2063 23.3260L 44.1177 23.8601L 44.0083 24.3959L 43.8779 24.9323L 43.7265 25.4680L 43.5541 26.0017L 43.3609 26.5322L 43.1471 27.0583L 42.9128 27.5787L 42.6585 28.0923L 42.3846 28.5978L 42.0915 29.0942L 41.7799 29.5803L 41.4503 30.0550L 41.1035 30.5174L 40.7402 30.9663L 40.3612 31.4009L 39.9675 31.8203L 39.5599 32.2237L 39.1394 32.6102L 38.7070 32.9792L 38.2639 33.3300L 37.8111 33.6621L 37.3498 33.9749L 36.8811 34.2680L 36.4062 34.5411L 35.9264 34.7939L 35.4428 35.0261L 34.9568 35.2376L 34.4695 35.4285L 33.9822 35.5986L 33.4962 35.7481L 33.0126 35.8773L 32.5327 35.9863L 32.0577 36.0754L 31.5888 36.1452L 31.1270 36.1960L 30.6736 36.2285L 30.2296 36.2432L 29.7960 36.2408L 29.3739 36.2220L 28.9641 36.1878L 28.5675 36.1389L 28.1851 36.0763L 27.8175 36.0009L 27.4654 35.9138L 27.1296 35.8160L 26.8105 35.7086L 26.5087 35.5927L 26.2246 35.4695L 25.9586 35.3402L 25.7110 35.2059L 25.4819 35.0680L 25.2715 34.9276L 25.0798 34.7859L 24.9069 34.6442L 24.7526 34.5038L 24.6167 34.3658L 24.4990 34.2314L 24.3992 34.1019L 24.3167 33.9783L 24.2513 33.8619L 24.2022 33.7537L 24.1690 33.6549L 24.1508 33.5663L 24.1470 33.4890L 24.1567 33.4240L 24.1792 33.3721L 24.2134 33.3340L 24.2583 33.3107L 24.3131 33.3028L 24.3766 33.3108L 24.4477 33.3355L 24.5254 33.3772L 24.6083 33.4364L 24.6955 33.5134L 24.7856 33.6086L 24.8774 33.7220L 24.9698 33.8539L 25.0615 34.0043L 25.1512 34.1730L 25.2377 34.3601L 25.3199 34.5653L 25.3965 34.7884L 25.4663 35.0290L 25.5281 35.2866L 25.5809 35.5609L 25.6235 35.8512L 25.6549 36.1569L 25.6740 36.4773L 25.6799 36.8117L 25.6716 37.1592L 25.6483 37.5189L 25.6092 37.8900L 25.5534 38.2715L 25.4804 38.6622L 25.3894 39.0613L 25.2799 39.4675L 25.1514 39.8797L 25.0036 40.2967L 24.8360 40.7174L 24.6484 41.1405L 24.4405 41.5649L 24.2124 41.9892L 23.9639 42.4122L 23.6951 42.8328L 23.4060 43.2496L 23.0970 43.6614L 22.7682 44.0670L 22.4201 44.4653L 22.0530 44.8550L 21.6674 45.2350L 21.2639 45.6041L 20.8431 45.9614L 20.4058 46.3058L 19.9526 46.6363L 19.4845 46.9519L 19.0023 47.2518L 18.5068 47.5351L 17.9992 47.8012L 17.4805 48.0492L 16.9516 48.2785L 16.4138 48.4886L 15.8681 48.6789L 15.3158 48.8491L 14.7580 48.9988L 14.1959 49.1276L 13.6308 49.2355L 13.0640 49.3222L 12.4966 49.3878L 11.9299 49.4322L 11.3652 49.4555L 10.8037 49.4580L 10.2466 49.4399L 9.6952 49.4016L 9.1505 49.3434L 8.6137 49.2658L 8.0860 49.1695L 7.5685 49.0549L 7.0621 48.9229L 6.5678 48.7741L 6.0867 48.6094L 5.6196 48.4296L 5.1673 48.2357L 4.7306 48.0287L 4.3102 47.8095L 3.9068 47.5792L 3.5209 47.3390L 3.1531 47.0899L 2.8037 46.8331L 2.4732 46.5698L 2.1618 46.3012L 1.8697 46.0286L 1.5971 45.7531L 1.3440 45.4761L 1.1104 45.1986L 0.8962 44.9221L 0.7012 44.6476L 0.5251 44.3765L 0.3677 44.1099L 0.2285 43.8489L 0.1071 43.5947L 0.0028 43.3485L -0.0848 43.1112L -0.1566 42.8840L -0.2133 42.6677L -0.2555 42.4634L -0.2844 42.2718L -0.3006 42.0940L -0.3052 41.9305L -0.2993 41.7821L -0.2838 41.6494L -0.2599 41.5331L -0.2287 41.4335L -0.1914 41.3512L -0.1490 41.2864L -0.1029 41.2395L -0.0543 41.2107L -0.0042 41.2001L 0.0459 41.2076L 0.0948 41.2334L 0.1415 41.2773L 0.1845 41.3390L 0.2228 41.4184L 0.2551 41.5150L 0.2804 41.6286L 0.2973 41.7585L 0.3050 41.9043L 0.3022 42.0653L 0.2880 42.2408L 0.2613 42.4301L 0.2214 42.6323L 0.1672 42.8466L 0.0981 43.0721L 0.0131 43.3077L -0.0883 43.5525L -0.2068 43.8054L -0.3429 44.0653L -0.4972 44.3311L -0.6701 44.6015L -0.8619 44.8755L -1.0728 45.1518L -1.3031 45.4292L -1.5529 45.7064L -1.8223 45.9822L -2.1111 46.2554L -2.4192 46.5247L -2.7465 46.7890L -3.0927 47.0470L -3.4575 47.2974L -3.8404 47.5393L -4.2408 47.7713L -4.6584 47.9925L -5.0924 48.2016L -5.5421 48.3978L -6.0068 48.5801L -6.4856 48.7474L -6.9777 48.8989L -7.4821 49.0338L -7.9978 49.1514L -8.5239 49.2509L -9.0592 49.3316L -9.6026 49.3931L -10.1530 49.4349L -10.7092 49.4564L -11.2701 49.4574L -11.8343 49.4376L -12.4008 49.3968L -12.9681 49.3348L -13.5351 49.2516L -14.1006 49.1473L -14.6632 49.0220L -15.2218 48.8759L -15.7752 48.7091L -16.3221 48.5221L -16.8613 48.3154L -17.3918 48.0892L -17.9123 47.8444L -18.4219 47.5813L -18.9194 47.3009L -19.4040 47.0037L -19.8746 46.6907L -20.3303 46.3627L -20.7704 46.0206L -21.1940 45.6654L -21.6004 45.2981L -21.9891 44.9199L -22.3594 44.5318L -22.7107 44.1349L -23.0428 43.7304L -23.3552 43.3196L -23.6476 42.9035L -23.9199 42.4835L -24.1718 42.0608L -24.4034 41.6366L -24.6147 41.2122L -24.8057 40.7888L -24.9766 40.3676L -25.1278 39.9498L -25.2595 39.5367L -25.3722 39.1295L -25.4663 38.7291L -25.5423 38.3369L -25.6009 37.9538L -25.6428 37.5809L -25.6688 37.2191L -25.6795 36.8695L -25.6760 36.5328L -25.6590 36.2100L -25.6296 35.9018L -25.5888 35.6088L -25.5377 35.3318L -25.4773 35.0713L -25.4088 34.8278L -25.3333 34.6018L -25.2520 34.3935L -25.1661 34.2034L -25.0768 34.0315L -24.9854 33.8780L -24.8931 33.7430L -24.8010 33.6265L -24.7105 33.5282L -24.6228 33.4482L -24.5391 33.3860L -24.4604 33.3413L -24.3881 33.3138L -24.3233 33.3030L -24.2669 33.3083L -24.2202 33.3291L -24.1841 33.3646L -24.1597 33.4143L -24.1477 33.4772L -24.1492 33.5524L -24.1648 33.6391L -24.1955 33.7363L -24.2418 33.8430L -24.3045 33.9581L -24.3840 34.0805L -24.4809 34.2091L -24.5956 34.3428L -24.7283 34.4803L -24.8795 34.6204L -25.0493 34.7619L -25.2378 34.9037L -25.4450 35.0444L -25.6709 35.1828L -25.9155 35.3178L -26.1784 35.4480L -26.4594 35.5723L -26.7583 35.6895L -27.0744 35.7985L -27.4075 35.8980L -27.7569 35.9870L -28.1219 36.0644L -28.5019 36.1293L -28.8961 36.1806L -29.3037 36.2173L -29.7239 36.2387L -30.1556 36.2439L -30.5979 36.2322L -31.0498 36.2028L -31.5102 36.1551L -31.9780 36.0886L -32.4520 36.0027L -32.9312 35.8971L -33.4142 35.7714L -33.8999 35.6253L -34.3871 35.4587L -34.8745 35.2713L -35.3608 35.0633L -35.8449 34.8346L -36.3254 34.5853L -36.8012 34.3156L -37.2710 34.0259L -37.7337 33.7163L -38.1880 33.3875L -38.6329 33.0398L -39.0671 32.6738L -39.4897 32.2902L -39.8995 31.8897L -40.2957 31.4729L -40.6772 31.0408L -41.0432 30.5942L -41.3929 30.1341L -41.7254 29.6614L -42.0401 29.1771L -42.3364 28.6824L -42.6136 28.1783L -42.8712 27.6660L -43.1089 27.1466L -43.3262 26.6214L -43.5229 26.0916L -43.6988 25.5583L -43.8538 25.0229L -43.9877 24.4866L -44.1007 23.9506L -44.1928 23.4161L -44.2642 22.8845L -44.3152 22.3568L -44.3461 21.8344L -44.3574 21.3184L -44.3494 20.8100L -44.3228 20.3101L -44.2781 19.8201L -44.2162 19.3408L -44.1376 18.8732L -44.0432 18.4184L -43.9340 17.9771L -43.8108 17.5503L -43.6745 17.1387L -43.5262 16.7430L -43.3671 16.3638L -43.1980 16.0018L -43.0203 15.6574L -42.8350 15.3311L -42.6433 15.0232L -42.4465 14.7340L -42.2457 14.4637L -42.0423 14.2125L -41.8373 13.9804L -41.6321 13.7674L -41.4280 13.5733L -41.2260 13.3981L -41.0274 13.2414L -40.8335 13.1029L -40.6453 12.9822L -40.4640 12.8789L -40.2908 12.7923L -40.1266 12.7219L -39.9726 12.6669L -39.8296 12.6267L -39.6987 12.6004L -39.5806 12.5872L -39.4763 12.5861L -39.3864 12.5962L -39.3118 12.6165L -39.2529 12.6458L -39.2105 12.6832L -39.1849 12.7275L -39.1766 12.7775L -39.1860 12.8320L -39.2133 12.8899L -39.2587 12.9500L -39.3224 13.0109L -39.4043 13.0715L -39.5045 13.1306L -39.6228 13.1869L -39.7591 13.2392L -39.9131 13.2863L -40.0844 13.3270L -40.2726 13.3602L -40.4773 13.3847L -40.6979 13.3994L -40.9337 13.4033L -41.1840 13.3953L -41.4482 13.3745L -41.7253 13.3400L -42.0146 13.2908L -42.3150 13.2262L -42.6257 13.1453L -42.9455 13.0476L -43.2734 12.9324L -43.6084 12.7990L -43.9492 12.6471L -44.2948 12.4762L -44.6438 12.2860L -44.9952 12.0761L -45.3477 11.8465L -45.7000 11.5969L -46.0510 11.3275L -46.3993 11.0381L -46.7437 10.7289L -47.0831 10.4001L -47.4161 10.0520L -47.7417 9.6849L -48.0586 9.2993L -48.3657 8.8956L -48.6618 8.4744L -48.9460 8.0364L -49.2172 7.5822L -49.4744 7.1127L -49.7166 6.6285L -49.9430 6.1307L -50.1528 5.6201L -50.3452 5.0978L -50.5194 4.5647L -50.6749 4.0219L -50.8111 3.4706L -50.9275 2.9119L -51.0237 2.3469L -51.0992 1.7769L -51.1539 1.2031L -51.1875 0.6266L -51.1999 0.0488L -51.1911 -0.5290L -51.1611 -1.1058L -51.1099 -1.6802L -51.0379 -2.2509L -50.9452 -2.8168L -50.8322 -3.3767L -50.6993 -3.9293L -50.5470 -4.4736L -50.3759 -5.0084L -50.1866 -5.5326L -49.9797 -6.0453L -49.7560 -6.5453L -49.5164 -7.0318L -49.2617 -7.5039L -48.9928 -7.9608L -48.7107 -8.4016L -48.4165 -8.8256L -48.1112 -9.2323L -47.7959 -9.6210L -47.4717 -9.9913L -47.1398 -10.3426L -46.8015 -10.6747L -46.4578 -10.9872L -46.1100 -11.2799L -45.7595 -11.5528L -45.4073 -11.8057L -45.0548 -12.0387L -44.7031 -12.2519L -44.3536 -12.4454L -44.0073 -12.6196L -43.6656 -12.7747L -43.3296 -12.9111L -43.0004 -13.0294L -42.6791 -13.1300L -42.3668 -13.2137L -42.0646 -13.2810L -41.7734 -13.3327L -41.4941 -13.3697L -41.2277 -13.3927L -40.9750 -13.4028L -40.7367 -13.4008L -40.5135 -13.3879L -40.3061 -13.3649L -40.1150 -13.3332L -39.9408 -13.2936L -39.7839 -13.2475L -39.6446 -13.1960L -39.5232 -13.1403L -39.4200 -13.0816L -39.3349 -13.0212L -39.2682 -12.9602L -39.2197 -12.8999L -39.1893 -12.8416L -39.1770 -12.7864L -39.1823 -12.7356L -39.2050 -12.6902L -39.2446 -12.6516L -39.3007 -12.6208L -39.3727 -12.5990L -39.4601 -12.5871L -39.5620 -12.5862L -39.6778 -12.5973L -39.8066 -12.6213L -39.9476 -12.6591L -40.0998 -12.7115L -40.2624 -12.7793L -40.4342 -12.8631L -40.6141 -12.9635L -40.8012 -13.0813L -40.9943 -13.2167L -41.1921 -13.3703L -41.3936 -13.5424L -41.5975 -13.7333L -41.8026 -13.9431L -42.0077 -14.1720L -42.2115 -14.4199L -42.4128 -14.6870L -42.6104 -14.9730L -42.8030 -15.2777L -42.9895 -15.6010L -43.1686 -15.9424L -43.3391 -16.3014L -43.5001 -16.6777L -43.6503 -17.0707L -43.7886 -17.4797L -43.9141 -17.9040L -44.0258 -18.3428L -44.1227 -18.7954L -44.2040 -19.2609L -44.2689 -19.7383L -44.3165 -20.2266L -44.3462 -20.7248L -44.3573 -21.2319L -44.3494 -21.7467L -44.3218 -22.2682L -44.2743 -22.7950L -44.2063 -23.3260L -44.1177 -23.8601L -44.0083 -24.3959L -43.8779 -24.9323L -43.7265 -25.4680L -43.5541 -26.0017L -43.3609 -26.5322L -43.1471 -27.0583L -42.9128 -27.5787L -42.6585 -28.0923L -42.3846 -28.5978L -42.0915 -29.0942L -41.7799 -29.5803L -41.4503 -30.0550L -41.1035 -30.5174L -40.7402 -30.9663L -40.3612 -31.4009L -39.9675 -31.8203L -39.5599 -32.2237L -39.1394 -32.6102L -38.7070 -32.9792L -38.2639 -33.3300L -37.8111 -33.6621L -37.3498 -33.9749L -36.8811 -34.2680L -36.4062 -34.5411L -35.9264 -34.7939L -35.4428 -35.0261L -34.9568 -35.2376L -34.4695 -35.4285L -33.9822 -35.5986L -33.4962 -35.7481L -33.0126 -35.8773L -32.5327 -35.9863L -32.0577 -36.0754L -31.5888 -36.1452L -31.1270 -36.1960L -30.6736 -36.2285L -30.2296 -36.2432L -29.7960 -36.2408L -29.3739 -36.2220L -28.9641 -36.1878L -28.5675 -36.1389L -28.1851 -36.0763L -27.8175 -36.0009L -27.4654 -35.9138L -27.1296 -35.8160L -26.8105 -35.7086L -26.5087 -35.5927L -26.2246 -35.4695L -25.9586 -35.3402L -25.7110 -35.2059L -25.4819 -35.0680L -25.2715 -34.9276L -25.0798 -34.7859L -24.9069 -34.6442L -24.7526 -34.5038L -24.6167 -34.3658L -24.4990 -34.2314L -24.3992 -34.1019L -24.3167 -33.9783L -24.2513 -33.8619L -24.2022 -33.7537L -24.1690 -33.6549L -24.1508 -33.5663L -24.1470 -33.4890L -24.1567 -33.4240L -24.1792 -33.3721L -24.2134 -33.3340L -24.2583 -33.3107L -24.3131 -33.3028L -24.3766 -33.3108L -24.4477 -33.3355L -24.5254 -33.3772L -24.6083 -33.4364L -24.6955 -33.5134L -24.7856 -33.6086L -24.8774 -33.7220L -24.9698 -33.8539L -25.0615 -34.0043L -25.1512 -34.1730L -25.2377 -34.3601L -25.3199 -34.5653L -25.3965 -34.7884L -25.4663 -35.0290L -25.5281 -35.2866L -25.5809 -35.5609L -25.6235 -35.8512L -25.6549 -36.1569L -25.6740 -36.4773L -25.6799 -36.8117L -25.6716 -37.1592L -25.6483 -37.5189L -25.6092 -37.8900L -25.5534 -38.2715L -25.4804 -38.6622L -25.3894 -39.0613L -25.2799 -39.4675L -25.1514 -39.8797L -25.0036 -40.2967L -24.8360 -40.7174L -24.6484 -41.1405L -24.4405 -41.5649L -24.2124 -41.9892L -23.9639 -42.4122L -23.6951 -42.8328L -23.4060 -43.2496L -23.0970 -43.6614L -22.7682 -44.0670L -22.4201 -44.4653L -22.0530 -44.8550L -21.6674 -45.2350L -21.2639 -45.6041L -20.8431 -45.9614L -20.4058 -46.3058L -19.9526 -46.6363L -19.4845 -46.9519L -19.0023 -47.2518L -18.5068 -47.5351L -17.9992 -47.8012L -17.4805 -48.0492L -16.9516 -48.2785L -16.4138 -48.4886L -15.8681 -48.6789L -15.3158 -48.8491L -14.7580 -48.9988L -14.1959 -49.1276L -13.6308 -49.2355L -13.0640 -49.3222L -12.4966 -49.3878L -11.9299 -49.4322L -11.3652 -49.4555L -10.8037 -49.4580L -10.2466 -49.4399L -9.6952 -49.4016L -9.1505 -49.3434L -8.6137 -49.2658L -8.0860 -49.1695L -7.5685 -49.0549L -7.0621 -48.9229L -6.5678 -48.7741L -6.0867 -48.6094L -5.6196 -48.4296L -5.1673 -48.2357L -4.7306 -48.0287L -4.3102 -47.8095L -3.9068 -47.5792L -3.5209 -47.3390L -3.1531 -47.0899L -2.8037 -46.8331L -2.4732 -46.5698L -2.1618 -46.3012L -1.8697 -46.0286L -1.5971 -45.7531L -1.3440 -45.4761L -1.1104 -45.1986L -0.8962 -44.9221L -0.7012 -44.6476L -0.5251 -44.3765L -0.3677 -44.1099L -0.2285 -43.8489L -0.1071 -43.5947L -0.0028 -43.3485L 0.0848 -43.1112L 0.1566 -42.8840L 0.2133 -42.6677L 0.2555 -42.4634L 0.2844 -42.2718L 0.3006 -42.0940L 0.3052 -41.9305L 0.2993 -41.7821L 0.2838 -41.6494L 0.2599 -41.5331L 0.2287 -41.4335L 0.1914 -41.3512L 0.1490 -41.2864L 0.1029 -41.2395L 0.0543 -41.2107L 0.0042 -41.2001L -0.0459 -41.2076L -0.0948 -41.2334L -0.1415 -41.2773L -0.1845 -41.3390L -0.2228 -41.4184L -0.2551 -41.5150L -0.2804 -41.6286L -0.2973 -41.7585L -0.3050 -41.9043L -0.3022 -42.0653L -0.2880 -42.2408L -0.2613 -42.4301L -0.2214 -42.6323L -0.1672 -42.8466L -0.0981 -43.0721L -0.0131 -43.3077L 0.0883 -43.5525L 0.2068 -43.8054L 0.3429 -44.0653L 0.4972 -44.3311L 0.6701 -44.6015L 0.8619 -44.8755L 1.0728 -45.1518L 1.3031 -45.4292L 1.5529 -45.7064L 1.8223 -45.9822L 2.1111 -46.2554L 2.4192 -46.5247L 2.7465 -46.7890L 3.0927 -47.0470L 3.4575 -47.2974L 3.8404 -47.5393L 4.2408 -47.7713L 4.6584 -47.9925L 5.0924 -48.2016L 5.5421 -48.3978L 6.0068 -48.5801L 6.4856 -48.7474L 6.9777 -48.8989L 7.4821 -49.0338L 7.9978 -49.1514L 8.5239 -49.2509L 9.0592 -49.3316L 9.6026 -49.3931L 10.1530 -49.4349L 10.7092 -49.4564L 11.2701 -49.4574L 11.8343 -49.4376L 12.4008 -49.3968L 12.9681 -49.3348L 13.5351 -49.2516L 14.1006 -49.1473L 14.6632 -49.0220L 15.2218 -48.8759L 15.7752 -48.7091L 16.3221 -48.5221L 16.8613 -48.3154L 17.3918 -48.0892L 17.9123 -47.8444L 18.4219 -47.5813L 18.9194 -47.3009L 19.4040 -47.0037L 19.8746 -46.6907L 20.3303 -46.3627L 20.7704 -46.0206L 21.1940 -45.6654L 21.6004 -45.2981L 21.9891 -44.9199L 22.3594 -44.5318L 22.7107 -44.1349L 23.0428 -43.7304L 23.3552 -43.3196L 23.6476 -42.9035L 23.9199 -42.4835L 24.1718 -42.0608L 24.4034 -41.6366L 24.6147 -41.2122L 24.8057 -40.7888L 24.9766 -40.3676L 25.1278 -39.9498L 25.2595 -39.5367L 25.3722 -39.1295L 25.4663 -38.7291L 25.5423 -38.3369L 25.6009 -37.9538L 25.6428 -37.5809L 25.6688 -37.2191L 25.6795 -36.8695L 25.6760 -36.5328L 25.6590 -36.2100L 25.6296 -35.9018L 25.5888 -35.6088L 25.5377 -35.3318L 25.4773 -35.0713L 25.4088 -34.8278L 25.3333 -34.6018L 25.2520 -34.3935L 25.1661 -34.2034L 25.0768 -34.0315L 24.9854 -33.8780L 24.8931 -33.7430L 24.8010 -33.6265L 24.7105 -33.5282L 24.6228 -33.4482L 24.5391 -33.3860L 24.4604 -33.3413L 24.3881 -33.3138L 24.3233 -33.3030L 24.2669 -33.3083L 24.2202 -33.3291L 24.1841 -33.3646L 24.1597 -33.4143L 24.1477 -33.4772L 24.1492 -33.5524L 24.1648 -33.6391L 24.1955 -33.7363L 24.2418 -33.8430L 24.3045 -33.9581L 24.3840 -34.0805L 24.4809 -34.2091L 24.5956 -34.3428L 24.7283 -34.4803L 24.8795 -34.6204L 25.0493 -34.7619L 25.2378 -34.9037L 25.4450 -35.0444L 25.6709 -35.1828L 25.9155 -35.3178L 26.1784 -35.4480L 26.4594 -35.5723L 26.7583 -35.6895L 27.0744 -35.7985L 27.4075 -35.8980L 27.7569 -35.9870L 28.1219 -36.0644L 28.5019 -36.1293L 28.8961 -36.1806L 29.3037 -36.2173L 29.7239 -36.2387L 30.1556 -36.2439L 30.5979 -36.2322L 31.0498 -36.2028L 31.5102 -36.1551L 31.9780 -36.0886L 32.4520 -36.0027L 32.9312 -35.8971L 33.4142 -35.7714L 33.8999 -35.6253L 34.3871 -35.4587L 34.8745 -35.2713L 35.3608 -35.0633L 35.8449 -34.8346L 36.3254 -34.5853L 36.8012 -34.3156L 37.2710 -34.0259L 37.7337 -33.7163L 38.1880 -33.3875L 38.6329 -33.0398L 39.0671 -32.6738L 39.4897 -32.2902L 39.8995 -31.8897L 40.2957 -31.4729L 40.6772 -31.0408L 41.0432 -30.5942L 41.3929 -30.1341L 41.7254 -29.6614L 42.0401 -29.1771L 42.3364 -28.6824L 42.6136 -28.1783L 42.8712 -27.6660L 43.1089 -27.1466L 43.3262 -26.6214L 43.5229 -26.0916L 43.6988 -25.5583L 43.8538 -25.0229L 43.9877 -24.4866L 44.1007 -23.9506L 44.1928 -23.4161L 44.2642 -22.8845L 44.3152 -22.3568L 44.3461 -21.8344L 44.3574 -21.3184L 44.3494 -20.8100L 44.3228 -20.3101L 44.2781 -19.8201L 44.2162 -19.3408L 44.1376 -18.8732L 44.0432 -18.4184L 43.9340 -17.9771L 43.8108 -17.5503L 43.6745 -17.1387L 43.5262 -16.7430L 43.3671 -16.3638L 43.1980 -16.0018L 43.0203 -15.6574L 42.8350 -15.3311L 42.6433 -15.0232L 42.4465 -14.7340L 42.2457 -14.4637L 42.0423 -14.2125L 41.8373 -13.9804L 41.6321 -13.7674L 41.4280 -13.5733L 41.2260 -13.3981L 41.0274 -13.2414L 40.8335 -13.1029L 40.6453 -12.9822L 40.4640 -12.8789L 40.2908 -12.7923L 40.1266 -12.7219L 39.9726 -12.6669L 39.8296 -12.6267L 39.6987 -12.6004L 39.5806 -12.5872L 39.4763 -12.5861L 39.3864 -12.5962L 39.3118 -12.6165L 39.2529 -12.6458L 39.2105 -12.6832L 39.1849 -12.7275L 39.1766 -12.7775L 39.1860 -12.8320L 39.2133 -12.8899L 39.2587 -12.9500L 39.3224 -13.0109L 39.4043 -13.0715L 39.5045 -13.1306L 39.6228 -13.1869L 39.7591 -13.2392L 39.9131 -13.2863L 40.0844 -13.3270L 40.2726 -13.3602L 40.4773 -13.3847L 40.6979 -13.3994L 40.9337 -13.4033L 41.1840 -13.3953L 41.4482 -13.3745L 41.7253 -13.3400L 42.0146 -13.2908L 42.3150 -13.2262L 42.6257 -13.1453L 42.9455 -13.0476L 43.2734 -12.9324L 43.6084 -12.7990L 43.9492 -12.6471L 44.2948 -12.4762L 44.6438 -12.2860L 44.9952 -12.0761L 45.3477 -11.8465L 45.7000 -11.5969L 46.0510 -11.3275L 46.3993 -11.0381L 46.7437 -10.7289L 47.0831 -10.4001L 47.4161 -10.0520L 47.7417 -9.6849L 48.0586 -9.2993L 48.3657 -8.8956L 48.6618 -8.4744L 48.9460 -8.0364L 49.2172 -7.5822L 49.4744 -7.1127L 49.7166 -6.6285L 49.9430 -6.1307L 50.1528 -5.6201L 50.3452 -5.0978L 50.5194 -4.5647L 50.6749 -4.0219L 50.8111 -3.4706L 50.9275 -2.9119L 51.0237 -2.3469L 51.0992 -1.7769L 51.1539 -1.2031L 51.1875 -0.6266L 51.1999 -0.0488L 51.1911 0.5290L 51.1611 1.1058L 51.1099 1.6802L 51.0379 2.2509L 50.9452 2.8168L 50.8322 3.3767L 50.6993 3.9293L 50.5470 4.4736L 50.3759 5.0084L 50.1866 5.5326L 49.9797 6.0453L 49.7560 6.5453L 49.5164 7.0318L 49.2617 7.5039L 48.9928 7.9608L 48.7107 8.4016L 48.4165 8.8256L 48.1112 9.2323L 47.7959 9.6210L 47.4717 9.9913L 47.1398 10.3426L 46.8015 10.6747L 46.4578 10.9872L 46.1100 11.2799L 45.7595 11.5528L 45.4073 11.8057L 45.0548 12.0387L 44.7031 12.2519L 44.3536 12.4454L 44.0073 12.6196L 43.6656 12.7747L 43.3296 12.9111L 43.0004 13.0294L 42.6791 13.1300L 42.3668 13.2137L 42.0646 13.2810L 41.7734 13.3327L 41.4941 13.3697L 41.2277 13.3927L 40.9750 13.4028L 40.7367 13.4008L 40.5135 13.3879L 40.3061 13.3649L 40.1150 13.3332L 39.9408 13.2936L 39.7839 13.2475L 39.6446 13.1960L 39.5232 13.1403" />
	<path stroke="#f3f70290" stroke-width="1" fill="none"
		d="M -1.7147 -29.6228 L -2.7629 -28.4958L -3.8279 -27.3160L -4.9081 -26.0868L -6.0016 -24.8117L -7.1064 -23.4943L -8.2206 -22.1383L -9.3419 -20.7475L -10.4680 -19.3256L -11.5967 -17.8765L -12.7255 -16.4040L -13.8518 -14.9119L -14.9731 -13.4042L -16.0867 -11.8845L -17.1898 -10.3569L -18.2798 -8.8249L -19.3538 -7.2923L -20.4089 -5.7629L -21.4423 -4.2402L -22.4510 -2.7277L -23.4322 -1.2289L -24.3829 0.2530L -25.3003 1.7146L -26.1815 3.1528L -27.0237 4.5648L -27.8240 5.9475L -28.5797 7.2982L -29.2882 8.6144L -29.9467 9.8937L -30.5528 11.1336L -31.1041 12.3322L -31.5982 13.4873L -32.0328 14.5972L -32.4060 15.6603L -32.7155 16.6750L -32.9598 17.6400L -33.1370 18.5542L -33.2456 19.4165L -33.2842 20.2263L -33.2516 20.9827L -33.1469 21.6854L -32.9690 22.3340L -32.7174 22.9283L -32.3916 23.4683L -31.9913 23.9541L -31.5165 24.3861L -30.9672 24.7646L -30.3437 25.0903L -29.6467 25.3638L -28.8769 25.5859L -28.0352 25.7575L -27.1229 25.8797L -26.1412 25.9537L -25.0917 25.9806L -23.9764 25.9618L -22.7970 25.8988L -21.5560 25.7929L -20.2555 25.6458L -18.8983 25.4591L -17.4870 25.2343L -16.0246 24.9732L -14.5142 24.6776L -12.9591 24.3491L -11.3627 23.9896L -9.7286 23.6007L -8.0604 23.1843L -6.3620 22.7422L -4.6373 22.2761L -2.8905 21.7877L -1.1256 21.2788L 0.6531 20.7510L 2.4413 20.2059L 4.2347 19.6452L 6.0288 19.0703L 7.8193 18.4828L 9.6016 17.8841L 11.3712 17.2755L 13.1238 16.6583L 14.8548 16.0338L 16.5599 15.4031L 18.2347 14.7673L 19.8749 14.1273L 21.4762 13.4840L 23.0345 12.8384L 24.5457 12.1912L 26.0059 11.5429L 27.4113 10.8944L 28.7581 10.2459L 30.0428 9.5981L 31.2620 8.9512L 32.4124 8.3056L 33.4911 7.6615L 34.4951 7.0190L 35.4218 6.3783L 36.2687 5.7394L 37.0336 5.1022L 37.7142 4.4668L 38.3090 3.8329L 38.8162 3.2006L 39.2345 2.5694L 39.5627 1.9394L 39.8001 1.3101L 39.9458 0.6815L 39.9997 0.0531L 39.9614 -0.5753L 39.8311 -1.2039L 39.6092 -1.8330L 39.2963 -2.4629L 38.8932 -3.0938L 38.4009 -3.7260L 37.8208 -4.3595L 37.1546 -4.9947L 36.4038 -5.6316L 35.5706 -6.2702L 34.6573 -6.9106L 33.6661 -7.5528L 32.5999 -8.1966L 31.4613 -8.8420L 30.2535 -9.4887L 28.9796 -10.1364L 27.6431 -10.7847L 26.2474 -11.4333L 24.7962 -12.0817L 23.2933 -12.7291L 21.7427 -13.3751L 20.1484 -14.0188L 18.5145 -14.6594L 16.8453 -15.2960L 15.1450 -15.9276L 13.4180 -16.5533L 11.6687 -17.1718L 9.9017 -17.7819L 8.1212 -18.3824L 6.3318 -18.9719L 4.5380 -19.5490L 2.7442 -20.1122L 0.9548 -20.6600L -0.8258 -21.1909L -2.5934 -21.7031L -4.3436 -22.1951L -6.0722 -22.6651L -7.7753 -23.1114L -9.4489 -23.5322L -11.0891 -23.9258L -12.6921 -24.2905L -14.2545 -24.6243L -15.7726 -24.9257L -17.2434 -25.1927L -18.6635 -25.4237L -20.0301 -25.6170L -21.3403 -25.7709L -22.5916 -25.8839L -23.7815 -25.9543L -24.9078 -25.9806L -25.9685 -25.9615L -26.9618 -25.8956L -27.8860 -25.7816L -28.7397 -25.6184L -29.5217 -25.4049L -30.2311 -25.1402L -30.8670 -24.8234L -31.4288 -24.4538L -31.9163 -24.0309L -32.3292 -23.5542L -32.6676 -23.0233L -32.9317 -22.4382L -33.1220 -21.7988L -33.2390 -21.1053L -33.2837 -20.3579L -33.2571 -19.5571L -33.1602 -18.7036L -32.9945 -17.7981L -32.7615 -16.8416L -32.4628 -15.8352L -32.1003 -14.7802L -31.6759 -13.6781L -31.1917 -12.5305L -30.6499 -11.3392L -30.0529 -10.1061L -29.4030 -8.8333L -28.7028 -7.5232L -27.9549 -6.1781L -27.1620 -4.8006L -26.3267 -3.3934L -25.4519 -1.9594L -24.5404 -0.5015L -23.5951 0.9771L -22.6189 2.4733L -21.6146 3.9837L -20.5852 5.5050L -19.5335 7.0335L -18.4625 8.5658L -17.3751 10.0981L -16.2739 11.6268L -15.1619 13.1481L -14.0417 14.6581L -12.9161 16.1531L -11.7876 17.6292L -10.6587 19.0825L -9.5319 20.5093L -8.4097 21.9056L -7.2941 23.2677L -6.1876 24.5919L -5.0920 25.8744L -4.0094 27.1116L -2.9417 28.3001L -1.8906 29.4362L -0.8577 30.5167L 0.1554 31.5383L 1.1474 32.4980L 2.1169 33.3926L 3.0628 34.2195L 3.9841 34.9758L 4.8798 35.6592L 5.7492 36.2672L 6.5915 36.7977L 7.4062 37.2487L 8.1928 37.6185L 8.9509 37.9054L 9.6804 38.1082L 10.3811 38.2257L 11.0529 38.2570L 11.6958 38.2013L 12.3101 38.0584L 12.8959 37.8278L 13.4534 37.5097L 13.9832 37.1042L 14.4856 36.6119L 14.9610 36.0336L 15.4101 35.3700L 15.8335 34.6226L 16.2316 33.7926L 16.6053 32.8818L 16.9552 31.8921L 17.2821 30.8255L 17.5865 29.6844L 17.8694 28.4714L 18.1313 27.1891L 18.3731 25.8406L 18.5955 24.4290L 18.7991 22.9575L 18.9846 21.4297L 19.1528 19.8492L 19.3042 18.2198L 19.4393 16.5454L 19.5588 14.8302L 19.6632 13.0783L 19.7528 11.2941L 19.8281 9.4818L 19.8895 7.6460L 19.9372 5.7913L 19.9714 3.9221L 19.9923 2.0432L 20.0000 0.1593L 19.9945 -1.7251L 19.9758 -3.6051L 19.9439 -5.4762L 19.8985 -7.3338L 19.8395 -9.1731L 19.7665 -10.9896L 19.6793 -12.7789L 19.5775 -14.5366L 19.4606 -16.2583L 19.3281 -17.9398L 19.1795 -19.5771L 19.0143 -21.1661L 18.8317 -22.7031L 18.6312 -24.1844L 18.4121 -25.6064L 18.1736 -26.9658L 17.9151 -28.2595L 17.6358 -29.4844L 17.3351 -30.6378L 17.0121 -31.7172L 16.6661 -32.7201L 16.2965 -33.6443L 15.9025 -34.4881L 15.4835 -35.2496L 15.0388 -35.9274L 14.5678 -36.5202L 14.0700 -37.0271L 13.5449 -37.4473L 12.9921 -37.7802L 12.4111 -38.0255L 11.8017 -38.1833L 11.1636 -38.2537L 10.4967 -38.2371L 9.8009 -38.1341L 9.0763 -37.9456L 8.3229 -37.6728L 7.5411 -37.3169L 6.7311 -36.8795L 5.8935 -36.3623L 5.0286 -35.7673L 4.1373 -35.0965L 3.2203 -34.3523L 2.2784 -33.5372L 1.3128 -32.6538L 0.3246 -31.7050L -0.6851 -30.6936L -1.7147 -29.6228L -2.7629 -28.4958L -3.8279 -27.3160L -4.9081 -26.0868L -6.0016 -24.8117L -7.1064 -23.4943L -8.2206 -22.1383L -9.3419 -20.7475L -10.4680 -19.3256L -11.5967 -17.8765" />
	
	</svg>